<?xml version="1.0" standalone="no"?>
<!DOCTYPE svg PUBLIC "-//W3C//DTD SVG 1.1//EN" "http://www.w3.org/Graphics/SVG/1.1/DTD/svg11.dtd" >
<svg xmlns="http://www.w3.org/2000/svg">
<metadata></metadata>
<defs>
<font id="freightmicro_probook" horiz-adv-x="995" >
<font-face units-per-em="2048" ascent="1638" descent="-410" />
<missing-glyph horiz-adv-x="546" />
<glyph unicode="&#xfb01;" horiz-adv-x="1173" d="M37 774v57l156 76v33q0 449 432 449q171 0 252 -45.5t81 -126.5q0 -44 -19.5 -60t-66.5 -16q-85 0 -172 92q-45 10 -110 10q-130 0 -189 -69.5t-59 -233.5v-47h467l168 72v-793q0 -4 6 -8l139 -53v-111h-430v147h133q6 0 6 9v608h-489v-588q4 -10 6 -12l199 -53v-111 h-492v147h138q4 0 4 9v583z" />
<glyph unicode="&#xfb02;" horiz-adv-x="1161" d="M37 774v57l156 76v33q0 449 432 449q145 0 237 -62l115 55v-1210q0 -4 6 -8l139 -53v-111h-430v147h133q6 0 6 9v608h-489v-588q4 -10 6 -12l199 -53v-111h-492v147h138q4 0 4 9v583zM342 893h489v252q-59 11 -131 86q-40 12 -108 12q-131 0 -190.5 -69.5t-59.5 -233.5 v-47z" />
<glyph unicode="&#xfb03;" horiz-adv-x="1808" d="M37 774v57l156 76v64q0 193 89.5 291t252.5 98q119 0 196.5 -46.5t77.5 -123.5l-16 -51q-51 32 -113 51q-85 29 -156 29q-95 0 -138.5 -54.5t-43.5 -169.5v-102h485v47q0 449 433 449q171 0 252 -45.5t81 -126.5q0 -44 -19.5 -60t-66.5 -16q-85 0 -174 92q-45 10 -108 10 q-130 0 -189 -69.5t-59 -233.5v-47h467l168 72v-793q0 -4 6 -8l139 -53v-111h-430v147h133q6 0 6 9v608h-489v-586q0 -8 6 -14l199 -53v-111h-492v147h137q2 0 3 2.5t1 4.5v2v608h-489v-586q0 -8 6 -14l199 -53v-111h-492v147h138q2 0 3 2.5t1 4.5v2v583z" />
<glyph unicode="&#xfb04;" horiz-adv-x="1796" d="M37 774v57l156 76v64q0 193 89.5 291t252.5 98q119 0 196.5 -46.5t77.5 -123.5l-16 -51q-45 28 -113 51q-82 29 -156 29q-95 0 -138.5 -54.5t-43.5 -169.5v-102h485v47q0 449 433 449q145 0 237 -62l115 55v-1210q0 -4 6 -8l139 -53v-111h-430v147h133q6 0 6 9v608h-489 v-586q0 -8 6 -14l199 -53v-111h-492v147h137q2 0 3 2.5t1 4.5v2v608h-489v-586q0 -8 6 -14l199 -53v-111h-492v147h138q2 0 3 2.5t1 4.5v2v583zM977 893h489v252q-58 11 -133 86q-38 12 -108 12q-130 0 -189 -69.5t-59 -233.5v-47z" />
<glyph horiz-adv-x="2048" />
<glyph horiz-adv-x="2048" />
<glyph unicode="&#xd;" horiz-adv-x="2048" />
<glyph unicode=" "  horiz-adv-x="546" />
<glyph unicode="&#x09;" horiz-adv-x="546" />
<glyph unicode="&#xa0;" horiz-adv-x="546" />
<glyph unicode="!" horiz-adv-x="528" d="M137 100q0 71 27 99t102 28q74 0 99.5 -28t25.5 -99q0 -72 -25.5 -101.5t-99.5 -29.5t-101.5 30t-27.5 101zM159.5 1247q-2.5 33 9 50t31 22.5t60.5 5.5h10q78 0 93 -27t4 -139l-74 -778q0 -9 -26.5 -9t-26.5 9l-76 778q-2 55 -4.5 88z" />
<glyph unicode="&#x22;" horiz-adv-x="911" d="M55 797l207 483h184v-82l-296 -401h-95zM449 797l204 483h185v-82l-297 -401h-92z" />
<glyph unicode="#" horiz-adv-x="1216" d="M10 340v135h252l92 332h-270v135h305l119 401l115 -28l-103 -359h326l110 385l117 -30l-106 -369h245v-135h-251l-93 -332h271v-135h-305l-132 -455l-116 29l119 412h-328l-123 -437l-117 29l119 422h-246zM383 461h354l103 360h-355z" />
<glyph unicode="$" horiz-adv-x="1124" d="M82 385h133l64 -209l79 -26l117 434q-72 16 -122 31.5t-103 43t-84.5 62.5t-51.5 89t-20 124q0 178 111.5 275.5t339.5 97.5q43 0 108 -7l54 201h118l-59 -221q5 -1 92 -25l129 56v-396h-127l-53 189q-34 16 -90 29l-109 -408q83 -17 139 -33.5t112 -45.5t88.5 -66.5 t52.5 -94.5t20 -133q0 -379 -477 -379q-51 0 -123 7l-78 -295h-117l84 313q-120 30 -194 65zM270 950q0 -91 53.5 -133t194.5 -74l107 404q-58 4 -86 4q-146 0 -207.5 -47.5t-61.5 -153.5zM453 133q53 -6 112 -6q156 0 218.5 53t62.5 156q0 102 -59.5 147t-221.5 80z" />
<glyph unicode="%" horiz-adv-x="1609" d="M51 969q0 83 22 148t57 105.5t83 67t95 37t98 10.5q155 0 229 -89t74 -253q0 -83 -22 -148.5t-57 -106.5t-83 -68t-95.5 -38t-97.5 -11q-155 0 -229 90t-74 256zM176 -39l1100 1354h160l-1104 -1354h-156zM180 987q0 -138 41 -192t166 -54q100 0 144 55t44 181 q0 69 -7.5 111t-29.5 73t-62 43.5t-105 12.5q-101 0 -146 -53t-45 -177zM901 281q0 83 22 148.5t57 105.5t82 66.5t94 37t97 10.5q156 0 231 -88.5t75 -253.5q0 -83 -22 -149t-57.5 -107t-83.5 -68t-95 -38t-97 -11q-155 0 -229 90.5t-74 256.5zM1030 299q0 -69 8 -111.5 t30.5 -74.5t63 -45t105.5 -13q99 0 143.5 54.5t44.5 179.5q0 69 -7.5 110.5t-29.5 72.5t-62.5 43.5t-106.5 12.5q-100 0 -144.5 -52.5t-44.5 -176.5z" />
<glyph unicode="&#x26;" horiz-adv-x="1449" d="M57 324q0 136 78 218t203 105v23q-104 38 -149.5 104t-45.5 197q0 155 101.5 245.5t290.5 90.5q366 0 366 -318q0 -116 -80.5 -202.5t-187.5 -100.5v-22q178 -67 291 -285h22l219 354l-4 10l-153 41v99h422v-144h-93l-16 -8l-324 -430q63 -89 122.5 -138.5t123.5 -49.5 q88 0 193 32l2 -39q-39 -61 -106.5 -97t-139.5 -36q-66 0 -121 30t-90 73.5t-72 109.5h-22q-69 -98 -175 -155.5t-229 -57.5q-203 0 -314.5 92.5t-111.5 258.5zM211 340q0 -217 307 -217q112 0 188 37t140 106q-91 142 -183 216.5t-249 135.5q-203 -112 -203 -278zM299 991 q0 -47 10 -82t25.5 -58.5t50 -46.5t66.5 -39t92 -43q11 -5 16 -7q92 54 141.5 125.5t49.5 130.5q0 103 -54 149.5t-192 46.5q-119 0 -162 -46t-43 -130z" />
<glyph unicode="'" horiz-adv-x="491" d="M41 797l201 483h184v-82l-291 -401h-94z" />
<glyph unicode="(" horiz-adv-x="763" d="M152 432q0 147 36 285.5t93.5 244.5t133 197.5t151 152t151.5 99.5l67 -98q-69 -39 -137 -97.5t-133.5 -142t-115 -179.5t-79.5 -216.5t-30 -245.5q0 -155 45.5 -300.5t119.5 -255.5t158 -191.5t172 -130.5l-65 -101q-76 39 -152 99.5t-152 152t-133.5 197.5t-93.5 244.5 t-36 285.5z" />
<glyph unicode=")" horiz-adv-x="763" d="M-20 -446q88 49 172 130.5t158 191.5t119.5 255.5t45.5 300.5q0 125 -30 245.5t-79.5 216.5t-115 179.5t-133.5 142t-137 97.5l67 98q76 -39 151.5 -99.5t151 -152t133 -197.5t93.5 -244.5t36 -285.5t-36 -285.5t-93.5 -244.5t-133.5 -197.5t-152 -152t-152 -99.5z" />
<glyph unicode="*" horiz-adv-x="858" d="M78 1133l33 45l149 -33l135 -189l39 13l6 233l97 109l53 -19l16 -145l-141 -191l24 -32l226 69l131 -61v-53l-131 -62l-226 70l-24 -31l135 -190l-14 -148l-54 -14l-100 110v234l-37 10l-135 -182l-145 -35l-33 45l76 133l215 68v45l-215 74z" />
<glyph unicode="+" d="M78 414l6 133h348v350h133v-350h348l7 -133h-355v-353h-133v353h-354z" />
<glyph unicode="," horiz-adv-x="489" d="M68 -305q92 111 137 183.5t45 127.5q0 52 -40.5 84t-127.5 51q0 73 34 108.5t107 35.5q86 0 143.5 -51.5t57.5 -153.5q0 -109 -75 -201.5t-247 -216.5z" />
<glyph unicode="-" horiz-adv-x="647" d="M74 428v137h504v-137h-504z" />
<glyph unicode="." horiz-adv-x="489" d="M109 106q0 76 30 107t111 31q79 0 106 -30.5t27 -107.5q0 -78 -27 -109.5t-106 -31.5q-81 0 -111 32t-30 109z" />
<glyph unicode="/" horiz-adv-x="571" d="M10 -424l449 1845h133l-449 -1845h-133z" />
<glyph unicode="0" horiz-adv-x="1120" d="M90 465q0 118 31.5 211.5t81.5 150.5t118 95t135 52.5t138 14.5q221 0 328.5 -126.5t107.5 -360.5q0 -118 -31.5 -211.5t-81.5 -151.5t-117.5 -96.5t-135 -54t-138.5 -15.5q-221 0 -328.5 128.5t-107.5 363.5zM254 492q0 -104 12.5 -169t48 -112.5t97.5 -67.5t161 -20 q151 0 221 83t70 271q0 103 -13 167.5t-48.5 110.5t-98 65.5t-161.5 19.5q-151 0 -220 -80.5t-69 -267.5z" />
<glyph unicode="1" horiz-adv-x="745" d="M68 799v86l411 106v-833q0 -2 6 -8l187 -68v-82h-555v147h213q4 0 4 9v635z" />
<glyph unicode="2" horiz-adv-x="964" d="M59 172q62 48 143.5 106t135 95t111 82.5t91 82t55 80.5t21.5 89q0 135 -202 135q-167 0 -346 -127l-9 47q48 102 151.5 167.5t242.5 65.5q166 0 250.5 -66.5t84.5 -183.5q0 -35 -6 -66t-14 -57t-28 -54t-36.5 -49.5t-51.5 -51t-61 -50t-77 -56t-87 -59.5t-104 -69.5 t-116 -78.5v-17h225q132 0 205 5t91 10.5t22 15.5l67 176h88l-37 -344h-788z" />
<glyph unicode="3" horiz-adv-x="897" d="M-4 -236q0 45 20.5 63.5t71.5 18.5q60 0 101.5 -30t86.5 -95q15 -4 121 -4q123 4 205 78t82 180q0 116 -60 164.5t-196 48.5q-76 0 -250 -22l-16 139q20 11 67 36t70.5 38t65.5 37.5t65 40.5t55.5 40t50.5 44t36 44t26 49t8 50q0 77 -56.5 117.5t-160.5 40.5 q-88 0 -171.5 -31t-180.5 -96l-8 47q50 103 154.5 168t246.5 65q166 0 260 -77.5t94 -204.5q0 -41 -11 -77.5t-26.5 -64.5t-46.5 -57.5t-56 -49t-70 -45.5t-74.5 -41t-83.5 -42q-12 -6 -19.5 -9.5t-18.5 -9t-20 -10.5v-22q102 24 179 24q148 0 231.5 -76.5t83.5 -224.5 q0 -118 -63.5 -216.5t-182 -158t-268.5 -59.5q-163 0 -252.5 50.5t-89.5 139.5z" />
<glyph unicode="4" horiz-adv-x="1026" d="M47 152l674 843l104 -8l-30 -821h217l-15 -133h-204l-17 -410h-143l16 410h-594zM219 166h430l29 573h-8z" />
<glyph unicode="5" horiz-adv-x="890" d="M16 -236q0 44 21 63t72 19q127 0 182 -133l45 2q142 21 226.5 98t84.5 207q0 142 -124.5 226.5t-430.5 140.5l101 576h649l-29 -152h-502l-51 -309q283 -59 419 -167t136 -280q0 -107 -41 -197.5t-111 -152.5t-164 -96.5t-200 -34.5q-156 0 -219.5 48t-63.5 142z" />
<glyph unicode="6" horiz-adv-x="1083" d="M90 465q0 320 225 560t598 318l31 -96q-282 -91 -454 -245.5t-228 -348.5l23 -6q87 91 162.5 130.5t179.5 39.5q366 0 366 -393q0 -219 -108.5 -335t-329.5 -116q-232 0 -348.5 130t-116.5 362zM254 465q0 -173 75 -257.5t251 -84.5q79 0 130.5 17t79 54t38 83.5 t10.5 115.5q0 146 -58.5 215.5t-204.5 69.5q-174 0 -309 -117q-12 -37 -12 -96z" />
<glyph unicode="7" horiz-adv-x="978" d="M68 598l34 365h813l17 -154l-590 -1186h-160l611 1143v37h-310q-131 0 -191 -5.5t-67.5 -10.5t-11.5 -21l-45 -168h-100z" />
<glyph unicode="8" horiz-adv-x="1058" d="M86 322q0 235 252 307v24q-104 24 -162.5 99t-58.5 200q0 167 107 261t315 94q206 0 305.5 -81.5t99.5 -250.5q0 -115 -57.5 -183t-169.5 -102v-24q126 -32 191 -112t65 -222q0 -163 -112 -261t-335 -98q-440 0 -440 349zM240 340q0 -227 303 -227q59 0 105.5 8.5 t75.5 24t49 33.5t29.5 42t13 44.5t3.5 45.5q0 41 -8.5 74t-21.5 58.5t-40.5 47.5t-54.5 37.5t-75 32.5t-89.5 29.5t-109.5 30.5q-51 -28 -88.5 -66t-56.5 -77t-27 -73t-8 -65zM270 973q0 -51 11.5 -86.5t34.5 -62t69.5 -48.5t102 -39t147.5 -39q77 52 116.5 125.5 t39.5 130.5q0 110 -62 160.5t-211 50.5q-74 0 -124.5 -14t-76.5 -41.5t-36.5 -60t-10.5 -76.5z" />
<glyph unicode="9" horiz-adv-x="1083" d="M90 537q0 219 109 335.5t329 116.5q232 0 348.5 -130.5t116.5 -362.5q0 -321 -225.5 -561t-597.5 -318l-33 96q284 93 456 247t228 347l-22 6q-87 -90 -163 -129t-179 -39q-367 0 -367 392zM246 569q0 -148 57.5 -217t204.5 -69q176 0 309 118q12 35 12 95 q0 174 -74.5 258t-250.5 84q-79 0 -130.5 -17.5t-79 -54t-38 -83t-10.5 -114.5z" />
<glyph unicode=":" horiz-adv-x="489" d="M109 106q0 76 30 107t111 31q79 0 106 -30.5t27 -107.5q0 -78 -27 -109.5t-106 -31.5q-81 0 -111 32t-30 109zM109 768q0 77 29.5 107t111.5 30q79 0 106 -29.5t27 -107.5q0 -77 -27 -108t-106 -31q-81 0 -111 31.5t-30 107.5z" />
<glyph unicode=";" horiz-adv-x="489" d="M72 -305q93 114 137.5 185.5t44.5 125.5q0 52 -41 84t-127 51q0 73 33.5 108.5t105.5 35.5q87 0 145 -51.5t58 -153.5q0 -109 -75 -201.5t-249 -216.5zM109 770q0 76 30 106.5t111 30.5q79 0 106 -30t27 -107q0 -78 -27 -109.5t-106 -31.5q-81 0 -111 32t-30 109z" />
<glyph unicode="&#x3c;" d="M41 446v72l850 414l37 -129l-652 -311v-19l652 -311l-37 -129z" />
<glyph unicode="=" d="M113 227l10 133h749l11 -133h-770zM113 745h770l-11 -133h-749z" />
<glyph unicode="&#x3e;" d="M68 162l651 311v19l-651 311l36 129l850 -414v-72l-850 -413z" />
<glyph unicode="?" horiz-adv-x="737" d="M92 1219q0 54 38.5 72t154.5 18q196 0 302.5 -89.5t106.5 -234.5q0 -58 -15.5 -106.5t-38.5 -80t-59.5 -58t-66.5 -41.5t-72 -31q-100 -41 -127 -61q-34 -26 -34 -60t29 -74t87 -96l-94 -8q-158 106 -158 204q0 43 17 78t52.5 62.5t67 44.5t83.5 41q52 22 78.5 35.5 t58.5 35.5t45.5 48t13.5 59q0 153 -272 153q-78 0 -174 -22q-9 0 -16 34.5t-7 76.5zM182 100q0 71 27 99t102 28q73 0 99 -28t26 -99q0 -72 -26 -101.5t-99 -29.5q-74 0 -101.5 30t-27.5 101z" />
<glyph unicode="@" horiz-adv-x="1695" d="M82 496q0 162 61.5 311t166.5 259t252.5 175.5t311.5 65.5q149 0 285 -48.5t238.5 -135t163.5 -215.5t61 -281q0 -123 -41.5 -231.5t-109 -181.5t-154 -115t-176.5 -42q-84 0 -149 27t-56 57l123 420h-37q-124 -232 -212.5 -344.5t-164.5 -112.5q-81 0 -144 63.5 t-63 127.5q0 119 72 294.5t158 262.5q106 106 221 106q65 0 116.5 -44t73.5 -119h25l45 118h100l-114 -303l-84 -458l96 -29q108 5 198.5 75.5t141.5 184t51 244.5q0 132 -55.5 247t-147.5 192.5t-212 122t-249 44.5q-145 0 -277.5 -60t-226 -160.5t-149 -235t-55.5 -279.5 q0 -187 81.5 -342t231 -246.5t336.5 -91.5q123 0 254 43l21 -72q-143 -47 -279 -47q-209 0 -376.5 100.5t-260 273t-92.5 380.5zM565 324q0 -38 26 -66.5t55.5 -40.5t53.5 -12q35 0 124 130t175 286q54 96 54 100q-20 43 -88.5 92t-130.5 49q-53 0 -82 -26 q-58 -56 -122.5 -230.5t-64.5 -281.5z" />
<glyph unicode="A" horiz-adv-x="1267" d="M-2 0v147h141l2 9l355 1032v72l229 55l381 -1143l8 -10l164 -51v-111h-494v147h146l4 9l-88 266h-467l-80 -250l4 -8l156 -53v-111h-461zM424 553h379l-170 561h-31z" />
<glyph unicode="B" horiz-adv-x="1222" d="M63 1169v111h592q129 0 215 -20.5t131.5 -62t63.5 -93.5t18 -127q0 -143 -70 -213.5t-204 -95.5v-25q164 -17 239.5 -84t75.5 -201q0 -86 -20.5 -149t-69 -111.5t-135.5 -73t-213 -24.5h-600v147h160l4 9v948l-4 12zM414 147h254h11q107 0 163 18q60 19 82 60.5t22 120.5 q0 89 -35.5 140t-119.5 75.5t-232 24.5h-145v-439zM414 700l133 2q201 4 279.5 59t78.5 183q0 107 -53.5 148t-202.5 41h-235v-433z" />
<glyph unicode="C" horiz-adv-x="1310" d="M109 612q0 365 145.5 530t468.5 165q191 0 326 -58l129 60v-398h-127l-52 183q-117 57 -307 57q-147 0 -232.5 -42t-129 -147.5t-43.5 -289.5q0 -117 7.5 -197.5t27 -144t49 -100.5t79.5 -61.5t111.5 -33t151.5 -8.5q183 0 295 63l65 203h127l-39 -393l-106 43 q-155 -70 -377 -70q-315 0 -442 143.5t-127 495.5z" />
<glyph unicode="D" horiz-adv-x="1392" d="M63 1169v111q507 6 521 6h14q358 0 520 -148q166 -151 166 -479q0 -334 -166 -496.5t-540 -162.5h-492v147h160l4 9v952l-4 8zM416 184l182 -37q130 2 222.5 28.5t157.5 83t96.5 148.5t31.5 224q0 152 -30 249t-100 153.5t-169.5 78t-255.5 21.5l-135 -3v-946z" />
<glyph unicode="E" horiz-adv-x="1241" d="M63 1169v111h1051v-381h-117l-51 191q-9 31 -48.5 37t-233.5 6h-248v-428h112q71 0 98 3t38 10t22 27l55 136h101l-45 -447h-101l-24 137q-1 8 -8.5 11.5t-38.5 5.5t-97 2h-112v-443h241q79 0 121.5 1.5t78.5 4.5t53 12t28.5 21t22.5 33l63 156h117l-41 -375h-1014v147 h160l4 9v952l-4 8z" />
<glyph unicode="F" horiz-adv-x="1163" d="M63 1169v111h1016v-381h-114l-50 178q-6 21 -13.5 30t-38.5 16t-80 8.5t-150 1.5h-217v-457h98q71 0 99.5 3t39.5 10t21 26l59 135h101l-43 -447h-101l-28 138q-3 13 -28 16.5t-120 3.5h-98v-389l4 -8l194 -53v-111h-528v147h160l4 9v952l-4 8z" />
<glyph unicode="G" horiz-adv-x="1382" d="M109 606q0 371 145.5 536t468.5 165q191 0 326 -58l129 60v-398h-127l-52 183q-117 57 -307 57q-118 0 -196 -27t-124.5 -87.5t-65.5 -147.5t-19 -217q0 -113 6.5 -191.5t25.5 -142.5t48 -102t78.5 -64t113 -35.5t154.5 -9.5q131 0 274 39v280l-4 9l-195 55v108h504v-147 h-143l-4 -8v-275l117 -20v-109q-308 -86 -564 -86q-168 0 -279 32.5t-181 109t-99.5 194.5t-29.5 297z" />
<glyph unicode="H" horiz-adv-x="1507" d="M63 1169v111h515v-147h-158l-4 -9v-407h663v391l-4 8l-180 53v111h512v-147h-160l-2 -9v-952l4 -8l181 -53v-111h-512v147h157l4 9v426h-663v-410l4 -8l180 -53v-111h-514v147h160l4 9v952l-4 8z" />
<glyph unicode="I" horiz-adv-x="727" d="M68 1169v111h565v-147h-184l-5 -9v-952l5 -8l206 -53v-111h-565v147h184l5 9v952l-5 8z" />
<glyph unicode="J" horiz-adv-x="858" d="M23 121q0 51 21.5 72.5t72.5 21.5q96 0 141 -78l14 -20q8 -4 35 -4q96 0 128 47t32 194v754l-4 8l-221 53v111h567v-147h-172l-4 -9v-790q0 -189 -81.5 -277t-264.5 -88q-264 0 -264 152z" />
<glyph unicode="K" horiz-adv-x="1386" d="M63 1169v111h515v-147h-158l-4 -9v-553l561 543v6l-74 23l-67 26v111h473v-147h-113l-10 -7l-430 -399l424 -555l10 -10l160 -51v-111h-510v147h141l4 9l-342 469l-227 -213v-240l4 -8l180 -53v-111h-514v147h160l4 9v952l-4 8z" />
<glyph unicode="L" horiz-adv-x="1140" d="M63 1169v111h555v-147h-198l-4 -9v-977h207q118 0 175 5.5t70.5 13t20.5 24.5l78 213h116l-41 -403h-956v147h160l4 9v952l-4 8z" />
<glyph unicode="M" horiz-adv-x="1796" d="M66 1169v111h471l321 -1016h35l340 1016h455v-147h-160l-4 -7l14 -954l4 -8l178 -53v-111h-516v147h164l4 9l-2 958h-35l-387 -1073h-166l-358 1069h-35l-10 -938l4 -8l154 -53v-111h-465v147h157l4 9l19 952l-4 8z" />
<glyph unicode="N" horiz-adv-x="1515" d="M57 1169v111h459l596 -1098h35v926l-4 8l-176 53v111h499v-147h-166l-4 -9v-1149h-252l-614 1123h-35v-926l4 -8l176 -53v-111h-493v147h160l4 9v952l-4 8z" />
<glyph unicode="O" horiz-adv-x="1396" d="M109 606q0 186 33 315.5t106 217t190.5 128t286.5 40.5q309 0 436 -143t127 -490q0 -369 -143.5 -535t-478.5 -166q-308 0 -432.5 142.5t-124.5 490.5zM287 668q0 -117 7 -197.5t26.5 -143.5t48 -99.5t77.5 -60.5t109.5 -32t149.5 -8q112 0 186 22.5t124.5 78t72.5 148.5 t22 236q0 117 -7 197.5t-26.5 143t-48 99t-78 60t-110 31.5t-150.5 8q-112 0 -185.5 -22t-124 -77.5t-72 -148t-21.5 -235.5z" />
<glyph unicode="P" horiz-adv-x="1175" d="M63 1169v111h553q255 0 370.5 -86.5t115.5 -273.5q0 -213 -121.5 -322t-341.5 -109q-121 0 -223 21v-338l4 -8l194 -53v-111h-528v147h160l4 9v952l-4 8zM416 643q85 -20 184 -20q174 0 249 63.5t75 208.5q0 134 -72.5 186t-263.5 52h-172v-490z" />
<glyph unicode="Q" horiz-adv-x="1404" d="M109 600q0 188 32.5 319t106 219t190.5 128.5t287 40.5q309 0 436 -142t127 -485q0 -331 -110 -498t-363 -200q35 -76 84.5 -126.5t114 -76.5t133 -36.5t158.5 -10.5l10 -109q-83 -26 -176 -26q-73 0 -141.5 18.5t-137.5 59.5t-129 117t-102 181q-287 7 -403.5 150 t-116.5 477zM287 674q0 -119 7 -200.5t26.5 -145t48 -100.5t77.5 -61t109.5 -32t149.5 -8q112 0 186 22.5t124.5 77.5t72.5 147t22 232q0 119 -7 200t-26.5 144.5t-48 100.5t-78 60.5t-110 31.5t-150.5 8q-112 0 -185.5 -22t-124 -77t-72 -146t-21.5 -232z" />
<glyph unicode="R" horiz-adv-x="1245" d="M63 1169v111h564q133 0 225.5 -23t145 -69.5t75.5 -107.5t23 -144q0 -166 -73 -260.5t-228 -136.5l217 -367l10 -8l170 -53v-111h-291l-80 172l-182 352l-223 -14v-338l4 -8l180 -53v-111h-514v147h160l4 9v948l-4 12zM416 653l192 -18q155 19 232.5 82t77.5 182 q0 88 -23 136.5t-87 73t-183 24.5h-209v-480z" />
<glyph unicode="S" horiz-adv-x="1132" d="M88 934q0 178 117.5 275.5t353.5 97.5q133 0 305 -52l129 56v-396h-127l-53 189q-99 47 -254 47q-160 0 -228.5 -48t-68.5 -153q0 -43 13.5 -74t36.5 -52.5t69.5 -39.5t96 -30.5t132.5 -28.5q84 -16 140.5 -32.5t113.5 -45t90 -66t53.5 -95.5t20.5 -134q0 -379 -506 -379 q-94 0 -204.5 18.5t-194.5 49.5l-33 344h131l64 -217q148 -41 256 -41q165 0 238 48.5t73 160.5q0 39 -6.5 68t-25 52.5t-41.5 39t-65 30.5t-86 26t-114 26q-58 12 -99 22t-89 26t-80 34t-64.5 44.5t-51.5 58.5t-30.5 75t-11.5 96z" />
<glyph unicode="T" horiz-adv-x="1290" d="M43 866l39 414h1126v-414h-114l-50 224q-6 23 -17.5 32.5t-54.5 16t-132 6.5h-115v-973l2 -8l209 -53v-111h-569v147h188l4 9v989h-123q-95 0 -142 -8t-60 -20.5t-19 -39.5l-51 -211h-121z" />
<glyph unicode="U" horiz-adv-x="1454" d="M23 1169v111h512v-147h-158l-4 -9v-583q0 -131 15.5 -209t59 -126t109 -64.5t176.5 -16.5q105 0 169.5 18t106.5 66.5t58 127t16 206.5v565l-4 8l-182 53v111h498v-147h-160l-2 -9v-637q0 -280 -124.5 -398t-399.5 -118q-269 0 -384.5 116t-115.5 400v621l-4 8z" />
<glyph unicode="V" horiz-adv-x="1271" d="M-2 1169v111h494v-147h-146l-4 -9l299 -979h31l309 963l-4 8l-158 53v111h461v-147h-139l-4 -9l-387 -1134h-207l-373 1118l-8 10z" />
<glyph unicode="W" horiz-adv-x="1943" d="M-8 1169v111h493v-147h-139l-2 -9l217 -950h35l272 926l-2 8l-6 8l-155 53v111h559l-2 -147h-142l-4 -9l273 -954h34l215 938l-4 8l-159 53v111h471v-147h-142l-4 -9l-297 -1134h-211l-286 993h-35l-301 -993h-209l-289 1128l-8 8z" />
<glyph unicode="X" horiz-adv-x="1302" d="M20 1169v111h494v-147h-127l-4 -9l254 -385h35l256 367l-4 10l-138 53v111h467v-147h-135l-10 -9l-373 -462l369 -488l10 -10l168 -53v-111h-491v147h129l2 9l-267 405h-34l-261 -387l5 -10l145 -53v-111h-473v147h135l10 9l369 483l-350 467l-11 10z" />
<glyph unicode="Y" horiz-adv-x="1210" d="M-25 1169v111h471v-147h-122l-5 -9l285 -493h31l270 487l-4 8l-147 43v111h465v-147h-146l-8 -9l-379 -626v-326l4 -8l207 -53v-111h-567v147h188l2 9v344l-385 616l-10 10z" />
<glyph unicode="Z" horiz-adv-x="1179" d="M84 0v127l786 993v17h-305q-103 0 -151 -1t-78.5 -6t-37 -11.5t-11.5 -22.5l-54 -197h-122v381h981v-129l-787 -991v-17h311q130 0 190 5t74 12.5t21 25.5l80 217h117l-43 -403h-971z" />
<glyph unicode="[" horiz-adv-x="753" d="M178 -469v1837h551v-123h-416v-1591h416v-123h-551z" />
<glyph unicode="\" horiz-adv-x="571" d="M12 1421h133l449 -1845h-133z" />
<glyph unicode="]" horiz-adv-x="753" d="M27 -346h415v1591h-415v123h551v-1837h-551v123z" />
<glyph unicode="^" horiz-adv-x="819" d="M70 891l178 389h287l178 -389h-115l-197 299h-18l-199 -299h-114z" />
<glyph unicode="_" horiz-adv-x="962" d="M-10 2h983v-137h-983v137z" />
<glyph unicode="`" horiz-adv-x="817" d="M209 1423h225l203 -366h-117z" />
<glyph unicode="a" horiz-adv-x="980" d="M76 231q0 150 135 232t453 112v80q0 77 -54.5 122.5t-165.5 45.5q-45 0 -92 -8.5t-75.5 -19.5t-28.5 -19q0 -6 7 -39.5t7 -40.5q0 -21 -22.5 -30t-85.5 -9q-43 0 -58.5 7.5t-15.5 25.5q0 82 57.5 145.5t146.5 95.5t191 32q173 0 255.5 -72t82.5 -236v-481 q0 -32 16.5 -44.5t57.5 -12.5q40 0 86 12q2 -57 2 -63q-25 -41 -68 -67t-96 -26q-70 0 -104.5 37t-34.5 121h-17q-50 -70 -134 -114t-175 -44q-120 0 -195 71.5t-75 186.5zM236 248q0 -135 167 -135q67 0 141.5 27.5t119.5 62.5v274q-245 -43 -336.5 -91.5t-91.5 -137.5z " />
<glyph unicode="b" horiz-adv-x="1110" d="M2 1225v51l305 106v-579h10q133 143 306 143q94 0 164.5 -22.5t114.5 -61t71 -97.5t37 -125t10 -151q0 -78 -16.5 -152t-52 -140.5t-86 -116t-123.5 -78.5t-160 -29q-84 0 -142.5 23.5t-122.5 73.5h-10l-80 -97h-67v1170l-4 8zM307 162q115 -35 271 -35q146 0 210 73.5 t64 248.5q0 105 -13 170t-46 105.5t-83.5 55.5t-131.5 15q-138 0 -271 -50v-583z" />
<glyph unicode="c" horiz-adv-x="952" d="M94 467q0 496 453 496q344 0 344 -191q0 -44 -21.5 -64t-70.5 -20q-59 0 -95 27.5t-81 95.5q-47 6 -115 6q-135 0 -194.5 -75.5t-59.5 -249.5q0 -203 59.5 -284t216.5 -81q159 0 349 109l8 -48q-50 -101 -152.5 -158t-222.5 -57q-217 0 -317.5 120t-100.5 374z" />
<glyph unicode="d" horiz-adv-x="1148" d="M94 442q0 99 26 187.5t77 160t136 114t193 42.5q85 0 146.5 -23.5t124.5 -72.5h10v293l-4 8l-154 74v51l305 106v-1175l4 -8l154 -60v-53l-285 -127l-20 158h-10q-134 -144 -305 -144q-93 0 -163.5 23.5t-114.5 64t-71.5 102t-38 128.5t-10.5 151zM262 485 q0 -207 59 -283.5t216 -76.5q148 0 270 49v582q-109 37 -277 37q-147 0 -207.5 -67.5t-60.5 -240.5z" />
<glyph unicode="e" horiz-adv-x="978" d="M94 467q0 255 116.5 375.5t326.5 120.5q188 0 277 -93.5t89 -287.5l-37 -142l-612 9v-3q0 -173 65.5 -246t225.5 -73q168 0 354 109l8 -48q-48 -100 -154 -157.5t-227 -57.5q-220 0 -326 121t-106 373zM260 539l488 14q-3 57 -8.5 95t-18 68.5t-29 48t-44.5 29 t-62.5 15.5t-85.5 4q-87 0 -134 -22t-72.5 -81t-33.5 -171z" />
<glyph unicode="f" horiz-adv-x="643" d="M37 774v57l156 76v125q0 177 89 267t242 90q126 0 180 -39t54 -117q0 -45 -22 -64.5t-74 -19.5q-54 0 -86 22t-72 76q-2 0 -8.5 1t-10.5 1q-71 0 -107 -51t-36 -162v-143h299l-39 -129h-260v-588l6 -12l199 -53v-111h-492v147h138l4 9v583z" />
<glyph unicode="g" d="M55 -283q0 66 49 119.5t134 102.5v18q-51 9 -83 50.5t-32 98.5q0 49 45 97.5t111 79.5v18q-82 23 -134.5 110t-52.5 205q0 150 110 250.5t292 100.5q128 0 235 -43h297l-49 -164l-193 59l-6 -14q84 -73 84 -187q0 -157 -118 -259.5t-304 -102.5q-40 0 -106 12 q-64 -52 -64 -92q0 -68 47 -84t205 -16h133q170 0 246 -57.5t76 -176.5q0 -177 -142 -269.5t-423 -92.5q-187 0 -272 56t-85 181zM207 -254q0 -52 20 -79.5t82 -42.5t180 -15q180 0 257 45t77 147q0 68 -43.5 93t-183.5 32q-176 11 -297 11q-38 -36 -65 -87.5t-27 -103.5z M252 668q0 -88 18.5 -168t44.5 -105q15 -17 40 -23.5t79 -6.5q52 0 113 17t96 52q64 58 64 166q0 143 -43 186q-41 41 -197 41q-120 0 -167.5 -38t-47.5 -121z" />
<glyph unicode="h" horiz-adv-x="1161" d="M37 1225v51l305 106v-583h16q59 80 140.5 122t171.5 42q168 0 235.5 -70.5t67.5 -235.5v-485l4 -8l153 -53v-111h-425v147h118l4 9v452q0 118 -41.5 161.5t-154.5 43.5q-80 0 -157.5 -26t-131.5 -68v-547l4 -8l154 -53v-111h-434v147h122l7 9v987l-5 8z" />
<glyph unicode="i" horiz-adv-x="542" d="M43 807v51l305 107v-793l4 -8l140 -53v-111h-429v147h134l4 9v567l-4 8zM152 1253q0 72 25.5 100.5t96.5 28.5q70 0 94.5 -28t24.5 -101t-24.5 -103t-94.5 -30t-96 30t-26 103z" />
<glyph unicode="j" horiz-adv-x="526" d="M-143 -317q0 88 96 88q49 0 79 -26.5t60 -82.5h21q86 27 86 207v854l-4 8l-156 76v51l305 107v-1080q0 -360 -289 -360q-61 0 -101.5 10.5t-61 33t-28 49t-7.5 65.5zM147 1253q0 72 27 100.5t98 28.5q69 0 93 -28t24 -101t-24.5 -103t-92.5 -30q-71 0 -98 30.5t-27 102.5 z" />
<glyph unicode="k" horiz-adv-x="1062" d="M37 1225v51l305 106v-938h16l273 281l65 59l-2 11l-129 43v96h422v-143h-92l-16 -9l-273 -239l236 -369l16 -12l148 -51v-111h-248l-72 154l-178 301q0 1 -41.5 -36.5t-82.5 -75.5l-42 -38v-133l4 -8l139 -53v-111h-419v147h124l5 9v985l-5 10z" />
<glyph unicode="l" horiz-adv-x="540" d="M39 1225v51l305 106v-1210l6 -8l154 -53v-111h-436v147h125l6 9v985l-4 10z" />
<glyph unicode="m" horiz-adv-x="1714" d="M41 807v51l305 107v-166h19q120 164 280 164q124 0 189.5 -39t87.5 -125h18q131 164 295 164q162 0 225.5 -70t63.5 -236v-485l4 -8l160 -53v-111h-431v147h117l4 9v452q0 119 -37.5 162t-144.5 43q-141 0 -260 -96v-545l4 -8l160 -53v-111h-436v147h120l4 9v452 q0 119 -37.5 162t-142.5 43q-141 0 -262 -94v-547l4 -8l160 -53v-111h-440v147h125l6 9v567l-4 8z" />
<glyph unicode="n" horiz-adv-x="1155" d="M41 807v51l305 107v-168h19q59 82 140 124t171 42q167 0 235 -70.5t68 -235.5v-485l4 -8l154 -53v-111h-426v147h118l2 9v452q0 119 -41 162t-153 43q-82 0 -160 -26.5t-131 -71.5v-543l4 -8l154 -53v-111h-434v147h125l6 9v567l-4 8z" />
<glyph unicode="o" horiz-adv-x="1091" d="M90 446q0 134 41 236.5t111 162t155.5 89t182.5 29.5q216 0 318.5 -118.5t102.5 -352.5q0 -108 -27 -196.5t-73 -148t-109 -100t-133 -58.5t-147 -18q-422 0 -422 475zM252 473q0 -113 15 -181.5t57 -107.5q61 -61 229 -61q150 0 216.5 77.5t66.5 266.5 q0 109 -13.5 175.5t-52.5 105.5q-60 63 -233 63q-153 0 -219 -75t-66 -263z" />
<glyph unicode="p" horiz-adv-x="1148" d="M37 807v51l305 107v-162h10q133 143 303 143q95 0 166 -22.5t115 -61t71 -97.5t37.5 -125t10.5 -151q0 -79 -15.5 -152.5t-50 -140t-84.5 -116t-123 -78.5t-161 -29q-83 0 -144.5 24t-124.5 73h-10v-334l4 -8l160 -56v-110h-440v149h122l7 8v1004l-5 8zM342 162 q115 -35 274 -35q148 0 209.5 72.5t61.5 249.5q0 139 -26 212.5t-84 103.5t-167 30q-135 0 -268 -50v-583z" />
<glyph unicode="q" horiz-adv-x="1128" d="M94 440q0 99 26 187.5t77 160t136 114t193 42.5q84 0 145.5 -24t125.5 -74h6l84 102h67v-1212l4 -8l154 -56v-110h-440v149h129l6 8v396h-10q-133 -146 -305 -146q-93 0 -163.5 24t-114.5 64.5t-71.5 101.5t-38 128.5t-10.5 152.5zM262 483q0 -207 59 -283.5t216 -76.5 q148 0 270 49v582q-121 37 -277 37q-147 0 -207.5 -67.5t-60.5 -240.5z" />
<glyph unicode="r" horiz-adv-x="804" d="M41 807v51l305 107v-273h21q51 82 83 126t68 81t69.5 50.5t76.5 13.5q137 0 137 -121q0 -56 -22.5 -81.5t-76.5 -25.5q-93 0 -155 45q-48 -33 -106 -96t-95 -119v-393l4 -8l174 -53v-111h-454v147h125l6 9v567l-4 6z" />
<glyph unicode="s" horiz-adv-x="919" d="M72 299h118l48 -149q110 -35 221 -35q122 0 174.5 34.5t52.5 108.5q0 30 -15.5 53t-33.5 36.5t-59.5 27t-65 18.5t-79.5 16l-15 3q-45 9 -71.5 15t-67 18t-65 23.5t-53 31.5t-44 43t-26.5 56t-11 73q0 151 99 221t296 70q105 0 213 -33l103 37l22 -322h-119l-51 150 q-102 26 -186 26q-129 0 -181.5 -32.5t-52.5 -104.5q0 -32 17 -55t53 -37.5t70 -23t88 -19.5q21 -4 32 -6q43 -8 72 -14.5t68.5 -18.5t66 -25t55 -33.5t45.5 -45.5t28 -60t11 -76q0 -297 -387 -297q-182 0 -346 58z" />
<glyph unicode="t" horiz-adv-x="716" d="M39 786v86l92 58l141 174l66 -12v-187h358l-37 -127h-319l-12 -489v-9q0 -82 35 -124q37 -44 118 -43q98 0 195 39l6 -62q-38 -49 -107.5 -83t-142.5 -34q-129 0 -193 73q-61 70 -61 202v12l15 492z" />
<glyph unicode="u" horiz-adv-x="1148" d="M20 825v109h312v-608q0 -117 41 -160t153 -43q160 0 277 96v543l-4 8l-162 55v109h311v-727l4 -8l154 -60v-53l-285 -127l-18 180h-19q-120 -166 -297 -166q-167 0 -235 70t-68 233v486l-4 8z" />
<glyph unicode="v" horiz-adv-x="1019" d="M-37 823v111h424v-148h-111l-4 -8l220 -647h32l232 629l-4 12l-142 51v111h410v-148h-117l-10 -8l-307 -778h-180l-281 762l-10 10z" />
<glyph unicode="w" horiz-adv-x="1507" d="M-31 823v111h430v-148h-114l-2 -8l163 -639h33l205 621l-8 12l-66 27l-59 24v111h401v-148h-90l-6 -8l184 -639h31l172 621l-4 12l-129 51v111h410v-148h-134l-10 -8l-239 -778h-181l-182 625h-31l-204 -625h-177l-231 762l-10 10z" />
<glyph unicode="x" horiz-adv-x="1103" d="M33 823v111h434v-148h-96l-2 -8l170 -252h34l187 236l-4 10l-119 53v109h414v-148h-119l-12 -8l-287 -303l274 -303l11 -10l149 -49v-113h-416v147h84l4 9l-184 266h-35l-201 -248l5 -10l131 -53v-111h-414v147h106l13 9l301 317l-273 289l-10 10z" />
<glyph unicode="y" horiz-adv-x="1015" d="M-37 823v111h416v-148h-103l-4 -8l232 -663h26l220 645l-5 12l-141 51v111h412v-148h-115l-10 -8l-287 -778l-57 -164q-56 -162 -133 -234.5t-207 -72.5q-232 0 -232 143q0 54 21.5 75.5t75.5 21.5q60 0 90 -23t53 -86l33 -2q58 13 97 57t79 158l47 127h-59l-287 762 l-10 10z" />
<glyph unicode="z" horiz-adv-x="966" d="M80 0v113l608 688l-133 14q-81 0 -138.5 -3.5t-89.5 -8.5t-50.5 -13t-24 -15.5t-6.5 -18.5l-25 -176h-115v354h779v-113l-604 -688l133 -14q136 0 208 9t89.5 19.5t23.5 30.5l49 170h115l-39 -348h-780z" />
<glyph unicode="{" horiz-adv-x="722" d="M45 352l6 101l-6 100q68 6 115.5 13t90 19t67 29.5t39 43.5t14.5 61q0 41 -25.5 99.5t-55.5 109t-55.5 117t-25.5 122.5q0 135 112 187t386 63v-143q-151 -9 -224.5 -22t-102 -35.5t-28.5 -65.5q0 -41 25.5 -95.5t55.5 -100t55.5 -106.5t25.5 -114q0 -129 -90.5 -194.5 t-282.5 -77.5v-19q192 -14 282.5 -79.5t90.5 -192.5q0 -54 -25.5 -116t-55.5 -108.5t-55.5 -99.5t-25.5 -92q0 -23 5.5 -39t22 -29t39.5 -20.5t66.5 -14.5t93 -11t128.5 -9v-145q-111 4 -187 13t-138.5 25.5t-98.5 43.5t-55 67.5t-19 96.5t25.5 123t55.5 118.5t55.5 110.5 t25.5 100q0 35 -14.5 61t-39 43.5t-67 29.5t-90 19t-115.5 13z" />
<glyph unicode="|" horiz-adv-x="598" d="M233 -424v1845h132v-1845h-132z" />
<glyph unicode="}" horiz-adv-x="722" d="M14 -367q80 5 129.5 9t93.5 11t67 14.5t39.5 20.5t22 29t5.5 39q0 39 -25.5 92t-55.5 99.5t-55.5 108.5t-25.5 116q0 127 89.5 192.5t281.5 79.5v19q-192 12 -281.5 77.5t-89.5 194.5q0 53 25.5 114t55.5 106.5t55.5 100t25.5 95.5q0 43 -29 65.5t-102.5 35.5t-225.5 22 v143q274 -11 387 -63t113 -187q0 -56 -25.5 -122.5t-55.5 -117t-55.5 -109t-25.5 -99.5q0 -35 14.5 -61t39 -43.5t67 -29.5t89 -19t114.5 -13l-6 -100l6 -101q-68 -6 -114.5 -13t-89 -19t-67 -29.5t-39 -43.5t-14.5 -61q0 -41 25.5 -100t55.5 -110.5t55.5 -118.5t25.5 -123 t-19 -96.5t-55.5 -67.5t-99.5 -43.5t-139 -25.5t-187 -13v145z" />
<glyph unicode="~" horiz-adv-x="819" d="M53 330q22 151 60.5 216.5t128.5 65.5q51 0 104 -23t89.5 -50.5t77 -50.5t69.5 -23q27 0 45 25.5t47 115.5h92q-9 -60 -17.5 -100t-23 -78t-33.5 -59.5t-47.5 -34t-66.5 -12.5q-51 0 -104 23t-89.5 50.5t-77 50.5t-69.5 23q-28 0 -46 -25t-49 -114h-90z" />
<glyph unicode="&#xa1;" horiz-adv-x="528" d="M137 1178q0 72 27 101.5t102 29.5q74 0 99.5 -29t25.5 -102q0 -71 -25.5 -99t-99.5 -28q-75 0 -102 28t-27 99zM160.5 11.5q-5.5 36.5 3.5 107.5l76 778q2 11 27 11t26 -11l74 -778q11 -111 -4 -138.5t-93 -27.5h-10q-54 0 -74 11t-25.5 47.5z" />
<glyph unicode="&#xa2;" horiz-adv-x="948" d="M94 467q0 496 453 496q49 0 67 -2l93 344h120l-98 -363q148 -38 148 -145q0 -42 -20.5 -57t-68.5 -15q-55 0 -118 35l-168 -631q4 0 13.5 -1t14.5 -1q169 0 355 109l8 -48q-48 -100 -154 -157.5t-227 -57.5h-41l-78 -288h-117l82 305q-137 38 -200.5 155t-63.5 322z M254 463q0 -143 35 -218.5t119 -101.5l182 668q-25 6 -82 6q-137 0 -195.5 -80t-58.5 -274z" />
<glyph unicode="&#xa3;" horiz-adv-x="1036" d="M61 670h240q-82 175 -82 280q0 75 22 135t70 107.5t131 73.5t197 26q313 0 313 -164q0 -37 -18.5 -53t-63.5 -16q-68 0 -106.5 18.5t-110.5 79.5q-1 0 -11.5 1t-16.5 1q-129 -3 -190.5 -53t-61.5 -154q0 -16 2.5 -34t5.5 -32.5t10.5 -36t11.5 -34t15 -37.5t15 -34.5 t17 -37.5t17 -36h391l-8 -103h-336q24 -58 34 -107.5t7 -105t-32 -109.5t-85 -104l15 -16q184 -8 217 -8q137 3 182 51q48 45 63 158l91 -9q-1 -199 -59.5 -276.5t-192.5 -77.5q-50 0 -108.5 15t-85.5 25t-100.5 45t-76.5 36q-52 -60 -96.5 -88.5t-96.5 -28.5q-72 0 -95 28 t-23 116q0 78 85 91.5t222 -46.5q59 49 59 127q0 104 -86 284h-280z" />
<glyph unicode="&#xa4;" horiz-adv-x="911" d="M70 1032l90 90l121 -121q73 50 176 50q104 0 180 -52l115 115l88 -88l-117 -117q45 -67 45 -174q0 -104 -47 -174l129 -129l-90 -90l-127 127q-71 -49 -176 -49q-106 0 -176 47l-117 -117l-88 88l117 117q-50 76 -50 180q0 106 47 176zM260 735q0 -83 54 -141.5 t143 -58.5q88 0 141 58.5t53 141.5q0 85 -53 143t-141 58q-89 0 -143 -58t-54 -143z" />
<glyph unicode="&#xa5;" horiz-adv-x="1187" d="M2 1169v111h487v-147h-153l-4 -9l262 -446h33l260 440l-4 8l-164 43v111h465v-147h-129l-6 -9l-322 -460h377l-8 -105h-416v-170h416l8 -104h-424v-113l2 -8l209 -53v-111h-569v147h188l4 9v129h-430l8 104h422v170h-422l-8 105h383l-309 452l-11 10z" />
<glyph unicode="&#xa6;" horiz-adv-x="598" d="M233 -301v686h132v-686h-132zM233 612v686h132v-686h-132z" />
<glyph unicode="&#xa7;" horiz-adv-x="1067" d="M82 571q0 47 17 83.5t51 62t72.5 42.5t92.5 32v30q-71 36 -102 71t-31 105q0 159 88 234.5t297 75.5q307 0 307 -164q0 -38 -18.5 -54t-64.5 -16q-68 0 -108 18.5t-110 77.5q-5 5 -26 5q-120 0 -162.5 -31t-42.5 -117q0 -44 36 -75t72 -43.5t132 -37.5q28 -8 43 -12 q71 -18 113 -30t88.5 -29.5t71.5 -35.5t47.5 -44.5t31 -59.5t8.5 -77q0 -47 -17 -83.5t-51 -62t-72.5 -42.5t-92.5 -32v-30q35 -18 54.5 -31.5t40 -34.5t29.5 -49.5t9 -66.5q0 -147 -90 -224.5t-295 -77.5q-312 0 -312 162q0 37 19.5 53.5t64.5 16.5q69 0 107.5 -18 t109.5 -78q8 -4 31 -4q114 0 159.5 30.5t45.5 108.5q0 48 -36 80.5t-72.5 45.5t-131.5 38q-28 8 -43 12q-71 17 -113.5 29.5t-89 30t-71.5 35.5t-47 44.5t-30.5 59.5t-8.5 77zM236 588q0 -41 38.5 -71t78.5 -43.5t135 -38.5q12 -3 18 -5q84 -20 170 -49q85 46 120 84.5 t35 99.5q0 31 -18 54.5t-55 40.5t-79 30t-103 29q-11 3 -17 4q-84 20 -168 49q-85 -46 -120 -84.5t-35 -99.5z" />
<glyph unicode="&#xa8;" horiz-adv-x="819" d="M49 1194q0 69 28 96t103 27q73 0 99 -27t26 -96q0 -71 -26.5 -101t-98.5 -30q-74 0 -102.5 30.5t-28.5 100.5zM512 1194q0 69 28 96t103 27t101 -27t26 -96q0 -71 -26.5 -101t-100.5 -30t-102.5 30.5t-28.5 100.5z" />
<glyph unicode="&#xa9;" horiz-adv-x="1599" d="M61 639q0 427 170.5 615t561.5 188q393 0 569 -189t176 -614q0 -426 -175 -614.5t-568 -188.5q-391 0 -562.5 188t-171.5 615zM162 639q0 -373 147 -537.5t486 -164.5q342 0 492.5 164.5t150.5 537.5q0 371 -151.5 536.5t-493.5 165.5q-339 0 -485 -164t-146 -538z M383 614q0 240 108 352.5t332 112.5q116 0 219 -39l99 41v-278h-101l-61 127q-51 35 -178 35q-142 0 -203 -69t-61 -241q0 -106 12 -171.5t44 -109t85.5 -60.5t140.5 -17q48 0 100.5 10.5t75.5 28.5l64 139h102l-24 -274l-84 30q-103 -49 -260 -49q-215 0 -312.5 103.5 t-97.5 328.5z" />
<glyph unicode="&#xaa;" horiz-adv-x="768" d="M55 717q0 122 108.5 188t354.5 72l4 82q5 65 -36.5 97t-133.5 32q-36 0 -73 -6.5t-59.5 -15t-22.5 -15.5q0 -5 5 -29.5t5 -29.5q0 -18 -18 -24.5t-68 -6.5q-38 0 -50 6t-12 20q0 96 99.5 158t224.5 62q134 0 199 -54.5t59 -169.5l-16 -368q-1 -45 14 -64.5t49 -19.5 q42 0 82 12l2 -31q-47 -96 -141 -96q-57 0 -85 26t-24 79h-24q-103 -107 -207 -107q-114 0 -175 51t-61 152zM184 733q0 -49 32 -73.5t103 -24.5q105 0 191 59l6 213q-177 -21 -254.5 -64.5t-77.5 -109.5z" />
<glyph unicode="&#xab;" horiz-adv-x="1150" d="M80 397v158l467 285l12 -109l-350 -239v-31l350 -240l-12 -110zM543 393v166l483 301l14 -112l-366 -256v-31l366 -256l-14 -115z" />
<glyph unicode="&#xac;" d="M84 489l6 134h821v-424h-133v290h-694z" />
<glyph unicode="&#xad;" horiz-adv-x="647" d="M74 428v137h504v-137h-504z" />
<glyph unicode="&#xae;" horiz-adv-x="1599" d="M61 639q0 427 170.5 615t561.5 188q393 0 569 -189t176 -614q0 -426 -175 -614.5t-568 -188.5q-391 0 -562.5 188t-171.5 615zM162 639q0 -373 147 -537.5t486 -164.5q342 0 492.5 164.5t150.5 537.5q0 371 -151.5 536.5t-493.5 165.5q-339 0 -485 -164t-146 -538z M401 975v88h420q182 0 254 -59t72 -170t-48.5 -174t-164.5 -93l151 -235l7 -6l112 -37v-88h-213l-63 118l-125 222l-139 -9v-200l2 -6l114 -37v-88h-362v114h102v7v608q-2 6 -2 8zM664 647l122 -12q209 12 209 168q0 83 -40.5 114t-149.5 31h-141v-301z" />
<glyph unicode="&#xaf;" horiz-adv-x="819" d="M123 1104l6 135h561l6 -135h-573z" />
<glyph unicode="&#xb0;" horiz-adv-x="747" d="M72 1008q0 153 72 226t231 73q91 0 149 -16t92 -54t47 -91.5t13 -137.5q0 -301 -301 -301q-170 0 -236.5 70t-66.5 231zM168 1008q0 -60 7 -95.5t29 -63.5t63 -39t108 -11q117 0 161 49t44 160q0 65 -7.5 102t-30.5 62t-61.5 33.5t-105.5 8.5q-117 0 -162 -47.5 t-45 -158.5z" />
<glyph unicode="&#xb1;" d="M78 0l6 129h829l7 -129h-842zM78 467l6 133h348v299h133v-299h348l7 -133h-355v-291h-133v291h-354z" />
<glyph unicode="&#xb2;" horiz-adv-x="675" d="M43 1184q45 74 120 121t181 47q125 0 193.5 -53.5t68.5 -139.5q0 -41 -17.5 -80.5t-42 -71.5t-73 -74.5t-88.5 -73.5t-111.5 -85t-121.5 -94v-14h131q98 0 151 3.5t66.5 7.5t15.5 11l43 98h74l-27 -227h-547l-14 119q48 43 122.5 105t119 100t91 84t68 84t21.5 73 q0 56 -43 87.5t-111 31.5q-129 0 -260 -94z" />
<glyph unicode="&#xb3;" horiz-adv-x="675" d="M35 657q0 29 15 40.5t48 11.5q38 0 82.5 -22t71.5 -62l43 8q83 10 138.5 46.5t55.5 100.5q0 54 -45.5 83.5t-132.5 29.5q-33 0 -147 -14l-8 77q159 63 200 86q87 50 88 113q0 39 -34.5 65.5t-98.5 26.5t-124 -22.5t-134 -65.5l-8 37q40 65 120.5 110.5t176.5 45.5 q121 0 180.5 -47.5t59.5 -126.5q0 -33 -16 -62t-39 -49t-65 -41t-77.5 -34.5t-93.5 -33.5v-10q84 17 137 17q83 0 139 -44t56 -118q0 -116 -102 -189t-263 -73q-111 0 -167 32t-56 84z" />
<glyph unicode="&#xb4;" horiz-adv-x="817" d="M221 1057l201 366h227l-311 -366h-117z" />
<glyph unicode="&#xb6;" horiz-adv-x="985" d="M80 930q0 128 40 201.5t143.5 111t287.5 37.5h326v-1348h-129v623q-113 -31 -248 -31q-195 0 -307.5 104t-112.5 302z" />
<glyph unicode="&#xb7;" horiz-adv-x="456" d="M109 467q0 76 30 106.5t111 30.5q79 0 106 -30t27 -107q0 -78 -27 -109.5t-106 -31.5q-81 0 -111 32t-30 109z" />
<glyph unicode="&#xb8;" horiz-adv-x="819" d="M209 -528q132 28 199.5 54.5t90.5 54.5t23 73q0 53 -65 76.5t-211 23.5h-21v56l260 256h117l-211 -203v-17q143 7 211 -40.5t68 -135.5q0 -123 -102.5 -186.5t-352.5 -87.5z" />
<glyph unicode="&#xb9;" horiz-adv-x="675" d="M109 1288l313 66v-680q0 -2 4 -4l164 -31v-80h-463v103h168l2 6v540l-186 17z" />
<glyph unicode="&#xba;" horiz-adv-x="872" d="M72 895q0 86 21.5 156t58.5 117t88 79t107 46t118 14q338 0 338 -377q0 -107 -32.5 -189.5t-89 -130.5t-125 -72t-146.5 -24q-338 0 -338 381zM203 913q0 -91 11 -144.5t44 -84.5q55 -49 184 -49q121 0 174.5 61.5t53.5 212.5q0 88 -11 142t-43 84q-51 51 -186 51 q-122 0 -174.5 -60.5t-52.5 -212.5z" />
<glyph unicode="&#xbb;" horiz-adv-x="1163" d="M119 205l366 256v31l-366 256l16 112l481 -301v-166l-481 -303zM600 221l350 240v31l-350 239l12 109l467 -285v-158l-467 -286z" />
<glyph unicode="&#xbc;" horiz-adv-x="1464" d="M109 1288l313 66v-680q0 -2 4 -4l164 -31v-80h-463v103h168l2 6v540l-186 17zM121 -238l1155 1518h149l-1155 -1518h-149zM803 -20l399 503l125 -6l-22 -485h141l-8 -90h-135l-11 -203h-114l10 203h-377zM928 -8h262l27 354h-13z" />
<glyph unicode="&#xbd;" horiz-adv-x="1464" d="M90 -238l1155 1518h150l-1155 -1518h-150zM109 1288l313 66v-680q0 -2 4 -4l164 -31v-80h-463v103h168l2 6v540l-186 17zM831 332q44 74 120 121t182 47q125 0 193.5 -53.5t68.5 -139.5q0 -41 -17.5 -80.5t-42.5 -71.5t-73 -74.5t-88.5 -73.5t-112 -85t-121.5 -94v-14 h131q98 0 151.5 3.5t67 7.5t15.5 11l43 98h73l-26 -227h-547l-14 119q48 43 122.5 105t118.5 100t90.5 84t68 84t21.5 73q0 56 -42.5 87.5t-110.5 31.5q-129 0 -260 -94z" />
<glyph unicode="&#xbe;" horiz-adv-x="1464" d="M35 657q0 29 15 40.5t48 11.5q38 0 82.5 -22t71.5 -62l43 8q83 10 138.5 46.5t55.5 100.5q0 54 -45.5 83.5t-132.5 29.5q-33 0 -147 -14l-8 77q159 63 200 86q87 50 88 113q0 39 -34.5 65.5t-98.5 26.5t-124 -22.5t-134 -65.5l-8 37q40 65 120.5 110.5t176.5 45.5 q121 0 180.5 -47.5t59.5 -126.5q0 -33 -16 -62t-39 -49t-65 -41t-77.5 -34.5t-93.5 -33.5v-10q84 17 137 17q83 0 139 -44t56 -118q0 -116 -102 -189t-263 -73q-111 0 -167 32t-56 84zM121 -238l1155 1518h149l-1155 -1518h-149zM803 -20l399 503l125 -6l-22 -485h141 l-8 -90h-135l-11 -203h-114l10 203h-377zM928 -8h262l27 354h-13z" />
<glyph unicode="&#xbf;" horiz-adv-x="737" d="M43 291q0 58 15.5 106.5t38.5 80t59.5 58t66.5 41.5t72 31q100 41 127 60q34 27 35 59q0 35 -29 75t-88 97l94 6q158 -102 158 -205q0 -34 -13 -64t-31 -51t-50.5 -42t-58.5 -34t-68 -32q-50 -22 -76.5 -36t-58.5 -36t-46 -48t-14 -58q0 -156 273 -156q78 3 174 25 q9 0 15.5 -35t6.5 -76q0 -54 -38.5 -73t-153.5 -19q-196 0 -303 90.5t-107 235.5zM301 1176q0 72 26 101.5t99 29.5q74 0 101.5 -30t27.5 -101t-27 -99t-102 -28q-73 0 -99 28t-26 99z" />
<glyph unicode="&#xc0;" horiz-adv-x="1267" d="M-2 0v147h141l2 9l355 1032v72l229 55l381 -1143l8 -10l164 -51v-111h-494v147h146l4 9l-88 266h-467l-80 -250l4 -8l156 -53v-111h-461zM276 1769h226l203 -366h-117zM424 553h379l-170 561h-31z" />
<glyph unicode="&#xc1;" horiz-adv-x="1267" d="M-2 0v147h141l2 9l355 1032v72l229 55l381 -1143l8 -10l164 -51v-111h-494v147h146l4 9l-88 266h-467l-80 -250l4 -8l156 -53v-111h-461zM424 553h379l-170 561h-31zM535 1403l200 366h228l-312 -366h-116z" />
<glyph unicode="&#xc2;" horiz-adv-x="1267" d="M-2 0v147h141l2 9l355 1032v72l229 55l381 -1143l8 -10l164 -51v-111h-494v147h146l4 9l-88 266h-467l-80 -250l4 -8l156 -53v-111h-461zM295 1403l178 389h287l178 -389h-115l-196 299h-19l-198 -299h-115zM424 553h379l-170 561h-31z" />
<glyph unicode="&#xc3;" horiz-adv-x="1267" d="M-2 0v147h141l2 9l355 1032v72l229 55l381 -1143l8 -10l164 -51v-111h-494v147h146l4 9l-88 266h-467l-80 -250l4 -8l156 -53v-111h-461zM270 1419q22 151 60.5 217t128.5 66q51 0 104 -23t89.5 -51t77 -51t69.5 -23q27 0 45 26t47 116h92q-9 -60 -17.5 -100t-23 -78 t-33.5 -59.5t-47.5 -34.5t-66.5 -13q-51 0 -104 23t-89.5 51t-77 51t-69.5 23q-28 0 -46 -25t-49 -115h-90zM424 553h379l-170 561h-31z" />
<glyph unicode="&#xc4;" horiz-adv-x="1267" d="M-2 0v147h141l2 9l355 1032v72l229 55l381 -1143l8 -10l164 -51v-111h-494v147h146l4 9l-88 266h-467l-80 -250l4 -8l156 -53v-111h-461zM260 1540q0 69 28 96t103 27q73 0 99 -27t26 -96q0 -71 -26.5 -101t-98.5 -30q-74 0 -102.5 30.5t-28.5 100.5zM424 553h379 l-170 561h-31zM723 1540q0 69 28 96t103 27t101 -27t26 -96q0 -71 -26.5 -101t-100.5 -30t-102.5 30.5t-28.5 100.5z" />
<glyph unicode="&#xc5;" horiz-adv-x="1267" d="M-2 0v147h141l2 9l363 1063q-63 23 -89 72.5t-26 142.5q0 122 56.5 178.5t183.5 56.5q139 0 187 -51.5t48 -183.5q0 -154 -108 -207l350 -1055l8 -10l164 -51v-111h-494v147h146l4 9l-88 266h-467l-82 -250l4 -8l158 -53v-111h-461zM424 553h379l-170 567h-31zM481 1434 q0 -85 28 -118.5t120 -33.5q82 0 112.5 36t30.5 116q0 90 -26 118.5t-117 28.5q-85 0 -116.5 -33t-31.5 -114z" />
<glyph unicode="&#xc6;" horiz-adv-x="1759" d="M-31 0l2 147h140l4 9l514 958l-2 4l-178 51v111h1181v-381h-117l-53 191q-9 31 -48 37t-234 6h-207v-428h90q73 0 93.5 6.5t33.5 33.5l57 136h98l-45 -447h-98l-26 137q-1 8 -8 11.5t-31.5 5.5t-75.5 2h-88v-443h200q98 0 155 2t84.5 9t35.5 13t14 19l78 185h117 l-41 -375h-971v147h158q4 0 4 9v266h-395l-134 -252v-4l144 -55v-111h-451zM479 553h326v598h-33z" />
<glyph unicode="&#xc7;" horiz-adv-x="1310" d="M109 612q0 365 145.5 530t468.5 165q191 0 326 -58l129 60v-398h-127l-52 183q-117 57 -307 57q-147 0 -232.5 -42t-129 -147.5t-43.5 -289.5q0 -117 7.5 -197.5t27 -144t49 -100.5t79.5 -61.5t111.5 -33t151.5 -8.5q183 0 295 63l65 203h127l-39 -393l-106 43 q-113 -52 -277 -66l-119 -114v-17q143 7 211 -40.5t68 -135.5q0 -123 -102.5 -186.5t-352.5 -87.5l-6 76q132 28 199.5 54.5t91 54.5t23.5 73q0 53 -65.5 76.5t-211.5 23.5h-20v56l165 163q-304 3 -427 147t-123 492z" />
<glyph unicode="&#xc8;" horiz-adv-x="1241" d="M63 1169v111h1051v-381h-117l-51 191q-9 31 -48.5 37t-233.5 6h-248v-428h112q71 0 98 3t38 10t22 27l55 136h101l-45 -447h-101l-24 137q-1 8 -8.5 11.5t-38.5 5.5t-97 2h-112v-443h241q79 0 121.5 1.5t78.5 4.5t53 12t28.5 21t22.5 33l63 156h117l-41 -375h-1014v147 h160l4 9v952l-4 8zM283 1769h225l203 -366h-117z" />
<glyph unicode="&#xc9;" horiz-adv-x="1241" d="M63 1169v111h1051v-381h-117l-51 191q-9 31 -48.5 37t-233.5 6h-248v-428h112q71 0 98 3t38 10t22 27l55 136h101l-45 -447h-101l-24 137q-1 8 -8.5 11.5t-38.5 5.5t-97 2h-112v-443h241q79 0 121.5 1.5t78.5 4.5t53 12t28.5 21t22.5 33l63 156h117l-41 -375h-1014v147 h160l4 9v952l-4 8zM541 1403l200 366h228l-312 -366h-116z" />
<glyph unicode="&#xca;" horiz-adv-x="1241" d="M63 1169v111h1051v-381h-117l-51 191q-9 31 -48.5 37t-233.5 6h-248v-428h112q71 0 98 3t38 10t22 27l55 136h101l-45 -447h-101l-24 137q-1 8 -8.5 11.5t-38.5 5.5t-97 2h-112v-443h241q79 0 121.5 1.5t78.5 4.5t53 12t28.5 21t22.5 33l63 156h117l-41 -375h-1014v147 h160l4 9v952l-4 8zM287 1403l178 389h287l178 -389h-115l-197 299h-18l-199 -299h-114z" />
<glyph unicode="&#xcb;" horiz-adv-x="1241" d="M63 1169v111h1051v-381h-117l-51 191q-9 31 -48.5 37t-233.5 6h-248v-428h112q71 0 98 3t38 10t22 27l55 136h101l-45 -447h-101l-24 137q-1 8 -8.5 11.5t-38.5 5.5t-97 2h-112v-443h241q79 0 121.5 1.5t78.5 4.5t53 12t28.5 21t22.5 33l63 156h117l-41 -375h-1014v147 h160l4 9v952l-4 8zM266 1540q0 69 28 96t103 27q73 0 99 -27t26 -96q0 -71 -26.5 -101t-98.5 -30q-74 0 -102.5 30.5t-28.5 100.5zM729 1540q0 69 28 96t103 27t101 -27t26 -96q0 -71 -26.5 -101t-100.5 -30t-102.5 30.5t-28.5 100.5z" />
<glyph unicode="&#xcc;" horiz-adv-x="727" d="M-2 1769h225l203 -366h-117zM68 1169v111h565v-147h-184l-5 -9v-952l5 -8l206 -53v-111h-565v147h184l5 9v952l-5 8z" />
<glyph unicode="&#xcd;" horiz-adv-x="727" d="M68 1169v111h565v-147h-184l-5 -9v-952l5 -8l206 -53v-111h-565v147h184l5 9v952l-5 8zM276 1403l201 366h228l-312 -366h-117z" />
<glyph unicode="&#xce;" horiz-adv-x="727" d="M37 1403l178 389h287l178 -389h-115l-196 299h-19l-198 -299h-115zM68 1169v111h565v-147h-184l-5 -9v-952l5 -8l206 -53v-111h-565v147h184l5 9v952l-5 8z" />
<glyph unicode="&#xcf;" horiz-adv-x="727" d="M2 1540q0 69 28 96t103 27q73 0 99 -27t26 -96q0 -71 -26.5 -101t-98.5 -30q-74 0 -102.5 30.5t-28.5 100.5zM68 1169v111h565v-147h-184l-5 -9v-952l5 -8l206 -53v-111h-565v147h184l5 9v952l-5 8zM465 1540q0 69 28 96t103 27t101 -27t26 -96q0 -71 -26.5 -101 t-100.5 -30t-102.5 30.5t-28.5 100.5z" />
<glyph unicode="&#xd0;" horiz-adv-x="1392" d="M63 1171v111q505 4 519 4q370 4 536 -146.5t166 -477.5q0 -166 -39 -287t-123.5 -205.5t-220 -126t-326.5 -41.5h-489v148h158l4 8v424h-174v135h174v393l-4 8zM414 186l182 -36q130 2 222.5 28t157.5 82.5t96.5 148.5t31.5 224q0 151 -30 248t-100 153.5t-170 78.5 t-255 22l-135 -2v-416h311v-135h-311v-396z" />
<glyph unicode="&#xd1;" horiz-adv-x="1515" d="M57 1169v111h459l596 -1098h35v926l-4 8l-176 53v111h499v-147h-166l-4 -9v-1149h-252l-614 1123h-35v-926l4 -8l176 -53v-111h-493v147h160l4 9v952l-4 8zM379 1419q9 60 17.5 100t23 77.5t33.5 59t47.5 34t66.5 12.5q51 0 104 -23t89.5 -51t77 -51t69.5 -23q27 0 45 26 t47 116h93q-9 -60 -18 -100t-23 -78t-33.5 -59.5t-48 -34.5t-66.5 -13q-51 0 -104 23t-89.5 51t-77 51t-69.5 23q-28 0 -45.5 -25t-48.5 -115h-90z" />
<glyph unicode="&#xd2;" horiz-adv-x="1396" d="M109 606q0 186 33 315.5t106 217t190.5 128t286.5 40.5q309 0 436 -143t127 -490q0 -369 -143.5 -535t-478.5 -166q-308 0 -432.5 142.5t-124.5 490.5zM287 668q0 -117 7 -197.5t26.5 -143.5t48 -99.5t77.5 -60.5t109.5 -32t149.5 -8q112 0 186 22.5t124.5 78t72.5 148.5 t22 236q0 117 -7 197.5t-26.5 143t-48 99t-78 60t-110 31.5t-150.5 8q-112 0 -185.5 -22t-124 -77.5t-72 -148t-21.5 -235.5zM360 1769h226l202 -366h-116z" />
<glyph unicode="&#xd3;" horiz-adv-x="1396" d="M109 606q0 186 33 315.5t106 217t190.5 128t286.5 40.5q309 0 436 -143t127 -490q0 -369 -143.5 -535t-478.5 -166q-308 0 -432.5 142.5t-124.5 490.5zM287 668q0 -117 7 -197.5t26.5 -143.5t48 -99.5t77.5 -60.5t109.5 -32t149.5 -8q112 0 186 22.5t124.5 78t72.5 148.5 t22 236q0 117 -7 197.5t-26.5 143t-48 99t-78 60t-110 31.5t-150.5 8q-112 0 -185.5 -22t-124 -77.5t-72 -148t-21.5 -235.5zM618 1403l201 366h228l-312 -366h-117z" />
<glyph unicode="&#xd4;" horiz-adv-x="1396" d="M109 606q0 186 33 315.5t106 217t190.5 128t286.5 40.5q309 0 436 -143t127 -490q0 -369 -143.5 -535t-478.5 -166q-308 0 -432.5 142.5t-124.5 490.5zM287 668q0 -117 7 -197.5t26.5 -143.5t48 -99.5t77.5 -60.5t109.5 -32t149.5 -8q112 0 186 22.5t124.5 78t72.5 148.5 t22 236q0 117 -7 197.5t-26.5 143t-48 99t-78 60t-110 31.5t-150.5 8q-112 0 -185.5 -22t-124 -77.5t-72 -148t-21.5 -235.5zM373 1403l178 389h287l178 -389h-115l-196 299h-19l-199 -299h-114z" />
<glyph unicode="&#xd5;" horiz-adv-x="1396" d="M109 606q0 186 33 315.5t106 217t190.5 128t286.5 40.5q309 0 436 -143t127 -490q0 -369 -143.5 -535t-478.5 -166q-308 0 -432.5 142.5t-124.5 490.5zM287 668q0 -117 7 -197.5t26.5 -143.5t48 -99.5t77.5 -60.5t109.5 -32t149.5 -8q112 0 186 22.5t124.5 78t72.5 148.5 t22 236q0 117 -7 197.5t-26.5 143t-48 99t-78 60t-110 31.5t-150.5 8q-112 0 -185.5 -22t-124 -77.5t-72 -148t-21.5 -235.5zM334 1419q9 60 17.5 100t23 77.5t33.5 59t47.5 34t66.5 12.5q51 0 104 -23t89.5 -51t77 -51t69.5 -23q27 0 45 26t47 116h93q-9 -60 -18 -100 t-23 -78t-33.5 -59.5t-48 -34.5t-66.5 -13q-51 0 -104 23t-89.5 51t-77 51t-69.5 23q-28 0 -45.5 -25t-48.5 -115h-90z" />
<glyph unicode="&#xd6;" horiz-adv-x="1396" d="M109 606q0 186 33 315.5t106 217t190.5 128t286.5 40.5q309 0 436 -143t127 -490q0 -369 -143.5 -535t-478.5 -166q-308 0 -432.5 142.5t-124.5 490.5zM287 668q0 -117 7 -197.5t26.5 -143.5t48 -99.5t77.5 -60.5t109.5 -32t149.5 -8q112 0 186 22.5t124.5 78t72.5 148.5 t22 236q0 117 -7 197.5t-26.5 143t-48 99t-78 60t-110 31.5t-150.5 8q-112 0 -185.5 -22t-124 -77.5t-72 -148t-21.5 -235.5zM338 1540q0 69 28 96t103 27q73 0 99 -27t26 -96q0 -71 -26.5 -101t-98.5 -30q-74 0 -102.5 30.5t-28.5 100.5zM801 1540q0 69 28 96t103 27 t101 -27t26 -96q0 -71 -26.5 -101t-100.5 -30t-102.5 30.5t-28.5 100.5z" />
<glyph unicode="&#xd7;" d="M82 156l324 321l-324 324l94 94l324 -324l321 324l94 -94l-321 -324l321 -321l-94 -95l-321 322l-324 -322z" />
<glyph unicode="&#xd8;" horiz-adv-x="1396" d="M109 606q0 186 33 315.5t107.5 217t194.5 128t295 40.5q153 0 260 -37l88 151h121l-114 -196q102 -67 148 -200t46 -351q0 -186 -34 -315.5t-110 -217t-197 -128t-296 -40.5q-161 0 -268 39l-84 -145h-115q97 165 111 190q-98 68 -142 200.5t-44 348.5zM287 668 q0 -193 20 -298t76 -161l532 885v30q-86 27 -225 27q-121 0 -199 -26t-123.5 -87.5t-63 -148t-17.5 -221.5zM469 150q68 -23 236 -23q121 0 199 26.5t124 88t64 149t18 221.5q0 199 -21.5 304.5t-82.5 158.5l-537 -895v-30z" />
<glyph unicode="&#xd9;" horiz-adv-x="1454" d="M23 1169v111h512v-147h-158l-4 -9v-583q0 -131 15.5 -209t59 -126t109 -64.5t176.5 -16.5q105 0 169.5 18t106.5 66.5t58 127t16 206.5v565l-4 8l-182 53v111h498v-147h-160l-2 -9v-637q0 -280 -124.5 -398t-399.5 -118q-269 0 -384.5 116t-115.5 400v621l-4 8zM383 1769 h225l203 -366h-117z" />
<glyph unicode="&#xda;" horiz-adv-x="1454" d="M23 1169v111h512v-147h-158l-4 -9v-583q0 -131 15.5 -209t59 -126t109 -64.5t176.5 -16.5q105 0 169.5 18t106.5 66.5t58 127t16 206.5v565l-4 8l-182 53v111h498v-147h-160l-2 -9v-637q0 -280 -124.5 -398t-399.5 -118q-269 0 -384.5 116t-115.5 400v621l-4 8zM664 1403 l200 366h228l-312 -366h-116z" />
<glyph unicode="&#xdb;" horiz-adv-x="1454" d="M23 1169v111h512v-147h-158l-4 -9v-583q0 -131 15.5 -209t59 -126t109 -64.5t176.5 -16.5q105 0 169.5 18t106.5 66.5t58 127t16 206.5v565l-4 8l-182 53v111h498v-147h-160l-2 -9v-637q0 -280 -124.5 -398t-399.5 -118q-269 0 -384.5 116t-115.5 400v621l-4 8zM408 1403 l178 389h286l179 -389h-115l-197 299h-18l-199 -299h-114z" />
<glyph unicode="&#xdc;" horiz-adv-x="1454" d="M23 1169v111h512v-147h-158l-4 -9v-583q0 -131 15.5 -209t59 -126t109 -64.5t176.5 -16.5q105 0 169.5 18t106.5 66.5t58 127t16 206.5v565l-4 8l-182 53v111h498v-147h-160l-2 -9v-637q0 -280 -124.5 -398t-399.5 -118q-269 0 -384.5 116t-115.5 400v621l-4 8zM352 1540 q0 69 28 96t103 27q73 0 99 -27t26 -96q0 -71 -26.5 -101t-98.5 -30q-74 0 -102.5 30.5t-28.5 100.5zM815 1540q0 69 28 96t103 27t101 -27t26 -96q0 -71 -26.5 -101t-100.5 -30t-102.5 30.5t-28.5 100.5z" />
<glyph unicode="&#xdd;" horiz-adv-x="1210" d="M-25 1169v111h471v-147h-122l-5 -9l285 -493h31l270 487l-4 8l-147 43v111h465v-147h-146l-8 -9l-379 -626v-326l4 -8l207 -53v-111h-567v147h188l2 9v344l-385 616l-10 10zM524 1403l201 366h227l-311 -366h-117z" />
<glyph unicode="&#xde;" horiz-adv-x="1169" d="M63 1169v111h529v-147h-172l-4 -9v-88h200q255 0 370.5 -86.5t115.5 -273.5q0 -213 -121.5 -321.5t-341.5 -108.5q-110 0 -223 20v-94l4 -8l194 -53v-111h-528v147h160l4 9v952l-4 8zM416 399q92 -18 184 -18q174 0 249 62.5t75 207.5q0 134 -72.5 187t-263.5 53h-172 v-492z" />
<glyph unicode="&#xdf;" horiz-adv-x="1155" d="M37 774v57l156 76v119q0 176 96 269.5t307 93.5q202 0 291.5 -72.5t89.5 -235.5q0 -194 -332 -333v-31q111 -33 184 -67.5t128.5 -83.5t80.5 -114.5t25 -154.5q0 -169 -79.5 -246.5t-254.5 -77.5q-169 0 -234 40.5t-65 127.5q0 40 24.5 55t73.5 15q43 0 79 -21t79 -75 q15 0 26 -1t15 -1q106 0 146 43t40 137q0 58 -17.5 101.5t-63.5 86.5t-130 82t-213 78v145q9 4 26 13q66 33 98.5 50t81 47.5t71 54t40 57t17.5 69.5q0 90 -54 134t-173 44q-141 0 -197.5 -56t-56.5 -195v-1004h-287v147h138q4 0 4 9v583z" />
<glyph unicode="&#xe0;" horiz-adv-x="980" d="M76 231q0 150 135 232t453 112v80q0 77 -54.5 122.5t-165.5 45.5q-45 0 -92 -8.5t-75.5 -19.5t-28.5 -19q0 -6 7 -39.5t7 -40.5q0 -21 -22.5 -30t-85.5 -9q-43 0 -58.5 7.5t-15.5 25.5q0 82 57.5 145.5t146.5 95.5t191 32q173 0 255.5 -72t82.5 -236v-481 q0 -32 16.5 -44.5t57.5 -12.5q40 0 86 12q2 -57 2 -63q-25 -41 -68 -67t-96 -26q-70 0 -104.5 37t-34.5 121h-17q-50 -70 -134 -114t-175 -44q-120 0 -195 71.5t-75 186.5zM111 1423h225l203 -366h-117zM236 248q0 -135 167 -135q67 0 141.5 27.5t119.5 62.5v274 q-245 -43 -336.5 -91.5t-91.5 -137.5z" />
<glyph unicode="&#xe1;" horiz-adv-x="980" d="M76 231q0 150 135 232t453 112v80q0 77 -54.5 122.5t-165.5 45.5q-45 0 -92 -8.5t-75.5 -19.5t-28.5 -19q0 -6 7 -39.5t7 -40.5q0 -21 -22.5 -30t-85.5 -9q-43 0 -58.5 7.5t-15.5 25.5q0 82 57.5 145.5t146.5 95.5t191 32q173 0 255.5 -72t82.5 -236v-481 q0 -32 16.5 -44.5t57.5 -12.5q40 0 86 12q2 -57 2 -63q-25 -41 -68 -67t-96 -26q-70 0 -104.5 37t-34.5 121h-17q-50 -70 -134 -114t-175 -44q-120 0 -195 71.5t-75 186.5zM236 248q0 -135 167 -135q67 0 141.5 27.5t119.5 62.5v274q-245 -43 -336.5 -91.5t-91.5 -137.5z M383 1057l201 366h227l-311 -366h-117z" />
<glyph unicode="&#xe2;" horiz-adv-x="980" d="M76 231q0 150 135 232t453 112v80q0 77 -54.5 122.5t-165.5 45.5q-45 0 -92 -8.5t-75.5 -19.5t-28.5 -19q0 -6 7 -39.5t7 -40.5q0 -21 -22.5 -30t-85.5 -9q-43 0 -58.5 7.5t-15.5 25.5q0 82 57.5 145.5t146.5 95.5t191 32q173 0 255.5 -72t82.5 -236v-481 q0 -32 16.5 -44.5t57.5 -12.5q40 0 86 12q2 -57 2 -63q-25 -41 -68 -67t-96 -26q-70 0 -104.5 37t-34.5 121h-17q-50 -70 -134 -114t-175 -44q-120 0 -195 71.5t-75 186.5zM143 1057l179 389h286l178 -389h-114l-197 299h-18l-199 -299h-115zM236 248q0 -135 167 -135 q67 0 141.5 27.5t119.5 62.5v274q-245 -43 -336.5 -91.5t-91.5 -137.5z" />
<glyph unicode="&#xe3;" horiz-adv-x="980" d="M76 231q0 150 135 232t453 112v80q0 77 -54.5 122.5t-165.5 45.5q-45 0 -92 -8.5t-75.5 -19.5t-28.5 -19q0 -6 7 -39.5t7 -40.5q0 -21 -22.5 -30t-85.5 -9q-43 0 -58.5 7.5t-15.5 25.5q0 82 57.5 145.5t146.5 95.5t191 32q173 0 255.5 -72t82.5 -236v-481 q0 -32 16.5 -44.5t57.5 -12.5q40 0 86 12q2 -57 2 -63q-25 -41 -68 -67t-96 -26q-70 0 -104.5 37t-34.5 121h-17q-50 -70 -134 -114t-175 -44q-120 0 -195 71.5t-75 186.5zM92 1073q22 151 60.5 217t128.5 66q51 0 104 -23t89.5 -51t77 -51t69.5 -23q27 0 45 26t47 116h92 q-9 -60 -18 -100t-23 -78t-33.5 -59.5t-48 -34.5t-66.5 -13q-51 0 -104 23t-89.5 50.5t-77 50.5t-69.5 23q-28 0 -45.5 -24.5t-48.5 -114.5h-90zM236 248q0 -135 167 -135q67 0 141.5 27.5t119.5 62.5v274q-245 -43 -336.5 -91.5t-91.5 -137.5z" />
<glyph unicode="&#xe4;" horiz-adv-x="980" d="M76 231q0 150 135 232t453 112v80q0 77 -54.5 122.5t-165.5 45.5q-45 0 -92 -8.5t-75.5 -19.5t-28.5 -19q0 -6 7 -39.5t7 -40.5q0 -21 -22.5 -30t-85.5 -9q-43 0 -58.5 7.5t-15.5 25.5q0 82 57.5 145.5t146.5 95.5t191 32q173 0 255.5 -72t82.5 -236v-481 q0 -32 16.5 -44.5t57.5 -12.5q40 0 86 12q2 -57 2 -63q-25 -41 -68 -67t-96 -26q-70 0 -104.5 37t-34.5 121h-17q-50 -70 -134 -114t-175 -44q-120 0 -195 71.5t-75 186.5zM109 1194q0 69 28 96t103 27q73 0 99 -27t26 -96q0 -71 -26.5 -101t-98.5 -30q-74 0 -102.5 30.5 t-28.5 100.5zM236 248q0 -135 167 -135q67 0 141.5 27.5t119.5 62.5v274q-245 -43 -336.5 -91.5t-91.5 -137.5zM571 1194q0 69 28 96t103 27t101 -27t26 -96q0 -71 -26.5 -101t-100.5 -30t-102.5 30.5t-28.5 100.5z" />
<glyph unicode="&#xe5;" horiz-adv-x="980" d="M76 231q0 150 135 232t453 112v80q0 77 -54.5 122.5t-165.5 45.5q-45 0 -92 -8.5t-75.5 -19.5t-28.5 -19q0 -6 7 -39.5t7 -40.5q0 -21 -22.5 -30t-85.5 -9q-43 0 -58.5 7.5t-15.5 25.5q0 82 57.5 145.5t146.5 95.5t191 32q173 0 255.5 -72t82.5 -236v-481 q0 -32 16.5 -44.5t57.5 -12.5q40 0 86 12q2 -57 2 -63q-25 -41 -68 -67t-96 -26q-70 0 -104.5 37t-34.5 121h-17q-50 -70 -134 -114t-175 -44q-120 0 -195 71.5t-75 186.5zM236 248q0 -135 167 -135q67 0 141.5 27.5t119.5 62.5v274q-245 -43 -336.5 -91.5t-91.5 -137.5z M238 1290q0 122 56 179t183 57q139 0 187.5 -52t48.5 -184q0 -237 -236 -237q-137 0 -188 54t-51 183zM330 1290q0 -86 27 -117.5t120 -31.5q83 0 113.5 35t30.5 114q0 91 -26 119.5t-118 28.5q-85 0 -116 -33.5t-31 -114.5z" />
<glyph unicode="&#xe6;" horiz-adv-x="1519" d="M76 231q0 100 56.5 167.5t186.5 112t343 64.5l2 70q2 83 -53 130.5t-167 47.5q-45 0 -92 -8.5t-75.5 -19.5t-28.5 -19q0 -6 7 -39.5t7 -40.5q0 -21 -22.5 -30t-85.5 -9q-43 0 -58.5 7.5t-15.5 25.5q0 82 59.5 145.5t150 95.5t191.5 32q128 0 188 -28t99 -91 q102 119 311 119q189 0 277 -90.5t88 -290.5l-37 -142l-596 9v-3q0 -175 59 -247t215 -72q167 0 357 109l8 -48q-50 -100 -156 -157.5t-227 -57.5q-266 0 -342 183h-31q-62 -84 -157.5 -133.5t-190.5 -49.5q-120 0 -195 71.5t-75 186.5zM236 248q0 -135 167 -135 q75 0 149.5 32.5t127.5 81.5q-31 98 -31 244q-226 -32 -319.5 -83t-93.5 -140zM815 539l473 14q-4 85 -15 133t-40 78t-72 39.5t-119 9.5q-123 0 -169 -57.5t-58 -216.5z" />
<glyph unicode="&#xe7;" horiz-adv-x="952" d="M94 467q0 496 453 496q344 0 344 -191q0 -44 -21.5 -64t-70.5 -20q-59 0 -95 27.5t-81 95.5q-47 6 -115 6q-135 0 -194.5 -75.5t-59.5 -249.5q0 -203 59.5 -284t216.5 -81q159 0 349 109l8 -48q-39 -80 -113 -132.5t-168 -71.5l-125 -121v-17q143 7 211 -40.5t68 -135.5 q0 -123 -102.5 -186.5t-352.5 -87.5l-6 76q132 28 199.5 54.5t90.5 54.5t23 73q0 53 -65 76.5t-211 23.5h-21v56l168 163q-201 7 -295 128t-94 366z" />
<glyph unicode="&#xe8;" horiz-adv-x="978" d="M94 467q0 255 116.5 375.5t326.5 120.5q188 0 277 -93.5t89 -287.5l-37 -142l-612 9v-3q0 -173 65.5 -246t225.5 -73q168 0 354 109l8 -48q-48 -100 -154 -157.5t-227 -57.5q-220 0 -326 121t-106 373zM156 1423h225l203 -366h-117zM260 539l488 14q-3 57 -8.5 95 t-18 68.5t-29 48t-44.5 29t-62.5 15.5t-85.5 4q-87 0 -134 -22t-72.5 -81t-33.5 -171z" />
<glyph unicode="&#xe9;" horiz-adv-x="978" d="M94 467q0 255 116.5 375.5t326.5 120.5q188 0 277 -93.5t89 -287.5l-37 -142l-612 9v-3q0 -173 65.5 -246t225.5 -73q168 0 354 109l8 -48q-48 -100 -154 -157.5t-227 -57.5q-220 0 -326 121t-106 373zM260 539l488 14q-3 57 -8.5 95t-18 68.5t-29 48t-44.5 29 t-62.5 15.5t-85.5 4q-87 0 -134 -22t-72.5 -81t-33.5 -171zM428 1057l201 366h227l-311 -366h-117z" />
<glyph unicode="&#xea;" horiz-adv-x="978" d="M94 467q0 255 116.5 375.5t326.5 120.5q188 0 277 -93.5t89 -287.5l-37 -142l-612 9v-3q0 -173 65.5 -246t225.5 -73q168 0 354 109l8 -48q-48 -100 -154 -157.5t-227 -57.5q-220 0 -326 121t-106 373zM180 1057l178 389h287l178 -389h-114l-197 299h-18l-199 -299h-115z M260 539l488 14q-3 57 -8.5 95t-18 68.5t-29 48t-44.5 29t-62.5 15.5t-85.5 4q-87 0 -134 -22t-72.5 -81t-33.5 -171z" />
<glyph unicode="&#xeb;" horiz-adv-x="978" d="M94 467q0 255 116.5 375.5t326.5 120.5q188 0 277 -93.5t89 -287.5l-37 -142l-612 9v-3q0 -173 65.5 -246t225.5 -73q168 0 354 109l8 -48q-48 -100 -154 -157.5t-227 -57.5q-220 0 -326 121t-106 373zM139 1194q0 69 28 96t103 27q73 0 99 -27t26 -96q0 -71 -26.5 -101 t-98.5 -30q-74 0 -102.5 30.5t-28.5 100.5zM260 539l488 14q-3 57 -8.5 95t-18 68.5t-29 48t-44.5 29t-62.5 15.5t-85.5 4q-87 0 -134 -22t-72.5 -81t-33.5 -171zM602 1194q0 69 28 96t103 27t101 -27t26 -96q0 -71 -26.5 -101t-100.5 -30t-102.5 30.5t-28.5 100.5z" />
<glyph unicode="&#xec;" horiz-adv-x="542" d="M-80 1423h225l203 -366h-117zM43 807v51l305 107v-793q0 -4 4 -8l140 -53v-111h-429v147h134q4 0 4 9v567q0 8 -4 8z" />
<glyph unicode="&#xed;" horiz-adv-x="542" d="M43 807v51l305 107v-793q0 -4 4 -8l140 -53v-111h-429v147h134q4 0 4 9v567q0 8 -4 8zM172 1057l201 366h227l-311 -366h-117z" />
<glyph unicode="&#xee;" horiz-adv-x="542" d="M-70 1057l179 389h286l178 -389h-114l-197 299h-18l-199 -299h-115zM43 807v51l305 107v-793q0 -4 4 -8l140 -53v-111h-429v147h134q4 0 4 9v567q0 8 -4 8z" />
<glyph unicode="&#xef;" horiz-adv-x="542" d="M-104 1194q0 69 28 96t103 27q73 0 99 -27t26 -96q0 -71 -26.5 -101t-98.5 -30q-74 0 -102.5 30.5t-28.5 100.5zM43 807v51l305 107v-793q0 -4 4 -8l140 -53v-111h-429v147h134q4 0 4 9v567q0 8 -4 8zM358 1194q0 69 28 96t103 27t101 -27t26 -96q0 -71 -26.5 -101 t-100.5 -30t-102.5 30.5t-28.5 100.5z" />
<glyph unicode="&#xf0;" horiz-adv-x="1091" d="M90 446q0 270 107 393.5t315 123.5q75 0 141 -29t105 -74h20q-81 143 -215 262l-401 -104v135l272 70q-99 67 -213 114v52h189q109 -51 196 -121l357 92v-135l-236 -60q274 -281 274 -657q0 -112 -27 -203.5t-73 -152.5t-109 -102.5t-133 -60t-147 -18.5q-422 0 -422 475 zM252 473q0 -113 15 -181.5t57 -107.5q61 -61 229 -61q150 0 216.5 77.5t66.5 266.5q0 206 -52 295q-93 49 -247 49q-153 0 -219 -75t-66 -263z" />
<glyph unicode="&#xf1;" horiz-adv-x="1155" d="M41 807v51l305 107v-168h19q59 82 140 124t171 42q167 0 235 -70.5t68 -235.5v-485l4 -8l154 -53v-111h-426v147h118l2 9v452q0 119 -41 162t-153 43q-82 0 -160 -26.5t-131 -71.5v-543l4 -8l154 -53v-111h-434v147h125l6 9v567l-4 8zM201 1073q9 60 17.5 100t23 77.5 t33.5 59t47.5 34t66.5 12.5q51 0 104 -23t89.5 -51t77 -51t69.5 -23q27 0 45 26t47 116h92q-9 -60 -17.5 -100t-23 -78t-33.5 -59.5t-47.5 -34.5t-66.5 -13q-51 0 -104 23t-89.5 50.5t-77 50.5t-69.5 23q-28 0 -45.5 -24.5t-48.5 -114.5h-90z" />
<glyph unicode="&#xf2;" horiz-adv-x="1091" d="M78 446q0 108 27 196t73 147t109 98.5t133 57.5t147 18q216 0 319 -118.5t103 -352.5q0 -108 -27 -196.5t-73 -148t-109 -100t-133 -58.5t-147 -18q-422 0 -422 475zM205 1423h225l203 -366h-117zM240 473q0 -114 14.5 -182t56.5 -107q61 -61 230 -61q150 0 216 77.5 t66 266.5q0 109 -13.5 176t-51.5 105q-60 63 -234 63q-152 0 -218 -75t-66 -263z" />
<glyph unicode="&#xf3;" horiz-adv-x="1091" d="M90 446q0 134 41 236.5t111 162t155.5 89t182.5 29.5q216 0 318.5 -118.5t102.5 -352.5q0 -108 -27 -196.5t-73 -148t-109 -100t-133 -58.5t-147 -18q-422 0 -422 475zM252 473q0 -113 15 -181.5t57 -107.5q61 -61 229 -61q150 0 216.5 77.5t66.5 266.5 q0 109 -13.5 175.5t-52.5 105.5q-60 63 -233 63q-153 0 -219 -75t-66 -263zM479 1057l201 366h227l-311 -366h-117z" />
<glyph unicode="&#xf4;" horiz-adv-x="1091" d="M90 446q0 134 41 236.5t111 162t155.5 89t182.5 29.5q216 0 318.5 -118.5t102.5 -352.5q0 -108 -27 -196.5t-73 -148t-109 -100t-133 -58.5t-147 -18q-422 0 -422 475zM219 1057l178 389h287l178 -389h-114l-197 299h-19l-198 -299h-115zM252 473q0 -113 15 -181.5 t57 -107.5q61 -61 229 -61q150 0 216.5 77.5t66.5 266.5q0 109 -13.5 175.5t-52.5 105.5q-60 63 -233 63q-153 0 -219 -75t-66 -263z" />
<glyph unicode="&#xf5;" horiz-adv-x="1091" d="M90 446q0 134 41 236.5t111 162t155.5 89t182.5 29.5q216 0 318.5 -118.5t102.5 -352.5q0 -108 -27 -196.5t-73 -148t-109 -100t-133 -58.5t-147 -18q-422 0 -422 475zM203 1073q9 60 17.5 100t23 77.5t33.5 59t47.5 34t66.5 12.5q51 0 104 -23t89.5 -51t77 -51t69.5 -23 q27 0 45 26t47 116h92q-9 -60 -17.5 -100t-23 -78t-33.5 -59.5t-47.5 -34.5t-66.5 -13q-51 0 -104 23t-89.5 50.5t-77 50.5t-69.5 23q-28 0 -45.5 -24.5t-48.5 -114.5h-90zM252 473q0 -113 15 -181.5t57 -107.5q61 -61 229 -61q150 0 216.5 77.5t66.5 266.5 q0 109 -13.5 175.5t-52.5 105.5q-60 63 -233 63q-153 0 -219 -75t-66 -263z" />
<glyph unicode="&#xf6;" horiz-adv-x="1091" d="M90 446q0 134 41 236.5t111 162t155.5 89t182.5 29.5q216 0 318.5 -118.5t102.5 -352.5q0 -108 -27 -196.5t-73 -148t-109 -100t-133 -58.5t-147 -18q-422 0 -422 475zM184 1194q0 69 28 96t103 27q73 0 99 -27t26 -96q0 -71 -26.5 -101t-98.5 -30q-74 0 -102.5 30.5 t-28.5 100.5zM252 473q0 -113 15 -181.5t57 -107.5q61 -61 229 -61q150 0 216.5 77.5t66.5 266.5q0 109 -13.5 175.5t-52.5 105.5q-60 63 -233 63q-153 0 -219 -75t-66 -263zM647 1194q0 69 28 96t103 27t101 -27t26 -96q0 -71 -26.5 -101t-100.5 -30t-102.5 30.5 t-28.5 100.5z" />
<glyph unicode="&#xf7;" d="M78 414l6 133h829l7 -133h-842zM385 193q0 47 33 80.5t80 33.5t80.5 -33.5t33.5 -80.5t-33.5 -80t-80.5 -33t-80 33t-33 80zM385 766q0 47 33 81t80 34t80.5 -34t33.5 -81t-33.5 -80t-80.5 -33t-80 33t-33 80z" />
<glyph unicode="&#xf8;" horiz-adv-x="1091" d="M63 -264l181 309q-154 115 -154 404q0 134 41 236t111 161t155 88t183 29q92 0 178 -27l168 289h123l-199 -336q151 -113 151 -397q0 -134 -40.5 -236.5t-110.5 -162.5t-155.5 -90t-182.5 -30q-106 0 -180 29l-154 -266h-115zM252 473q0 -110 15.5 -178.5t56.5 -110.5 l354 613q-52 14 -141 14q-153 0 -219 -74.5t-66 -263.5zM414 139q52 -14 139 -14q151 0 217 76.5t66 265.5q0 207 -66 281z" />
<glyph unicode="&#xf9;" horiz-adv-x="1148" d="M12 825v109h312v-608q0 -117 41 -160t153 -43q160 0 277 96v543l-4 8l-162 55v109h311v-727l4 -8l154 -60v-53l-285 -127l-18 180h-19q-120 -166 -297 -166q-167 0 -235 70t-68 233v486l-4 8zM199 1423h225l203 -366h-117z" />
<glyph unicode="&#xfa;" horiz-adv-x="1148" d="M20 825v109h312v-608q0 -117 41 -160t153 -43q160 0 277 96v543l-4 8l-162 55v109h311v-727l4 -8l154 -60v-53l-285 -127l-18 180h-19q-120 -166 -297 -166q-167 0 -235 70t-68 233v486l-4 8zM428 1057l201 366h227l-311 -366h-117z" />
<glyph unicode="&#xfb;" horiz-adv-x="1148" d="M20 825v109h312v-608q0 -117 41 -160t153 -43q160 0 277 96v543l-4 8l-162 55v109h311v-727l4 -8l154 -60v-53l-285 -127l-18 180h-19q-120 -166 -297 -166q-167 0 -235 70t-68 233v486l-4 8zM221 1057l178 389h287l178 -389h-114l-197 299h-18l-199 -299h-115z" />
<glyph unicode="&#xfc;" horiz-adv-x="1148" d="M20 825v109h312v-608q0 -117 41 -160t153 -43q160 0 277 96v543l-4 8l-162 55v109h311v-727l4 -8l154 -60v-53l-285 -127l-18 180h-19q-120 -166 -297 -166q-167 0 -235 70t-68 233v486l-4 8zM172 1194q0 69 28 96t103 27q73 0 99 -27t26 -96q0 -71 -26.5 -101t-98.5 -30 q-74 0 -102.5 30.5t-28.5 100.5zM635 1194q0 69 28 96t103 27t101 -27t26 -96q0 -71 -26.5 -101t-100.5 -30t-102.5 30.5t-28.5 100.5z" />
<glyph unicode="&#xfd;" horiz-adv-x="1015" d="M-37 823v111h416v-148h-103l-4 -8l232 -663h26l220 645l-5 12l-141 51v111h412v-148h-115l-10 -8l-287 -778l-57 -164q-56 -162 -133 -234.5t-207 -72.5q-232 0 -232 143q0 54 21.5 75.5t75.5 21.5q60 0 90 -23t53 -86l33 -2q58 13 97 57t79 158l47 127h-59l-287 762 l-10 10zM408 1057l200 366h228l-312 -366h-116z" />
<glyph unicode="&#xfe;" horiz-adv-x="1114" d="M2 1225v51l305 106v-579h10q133 143 304 143q95 0 165.5 -22.5t115 -61t71.5 -97.5t37 -125t10 -151q0 -79 -15.5 -152.5t-50 -140t-84.5 -116t-123 -78.5t-161 -29q-83 0 -144.5 24t-124.5 73h-10v-334l4 -8l160 -56v-110h-440v149h123l6 8v1422l-4 10zM307 162 q115 -35 275 -35q148 0 209 72.5t61 249.5q0 139 -26 212.5t-84 103.5t-167 30q-135 0 -268 -50v-583z" />
<glyph unicode="&#xff;" horiz-adv-x="1015" d="M-37 823v111h416v-148h-103l-4 -8l232 -663h26l220 645l-5 12l-141 51v111h412v-148h-115l-10 -8l-287 -778l-57 -164q-56 -162 -133 -234.5t-207 -72.5q-232 0 -232 143q0 54 21.5 75.5t75.5 21.5q60 0 90 -23t53 -86l33 -2q58 13 97 57t79 158l47 127h-59l-287 762 l-10 10zM141 1194q0 69 28 96t103 27q73 0 99 -27t26 -96q0 -71 -26.5 -101t-98.5 -30q-74 0 -102.5 30.5t-28.5 100.5zM604 1194q0 69 28 96t103 27t101 -27t26 -96q0 -71 -26.5 -101t-100.5 -30t-102.5 30.5t-28.5 100.5z" />
<glyph unicode="&#x152;" horiz-adv-x="1978" d="M109 614q0 140 23 244t75 186t137 133t209 77t291 26h1003v-381h-114l-54 191q-9 31 -48 37t-234 6h-248v-428h100q59 0 83.5 0.5t42 6.5t20 10.5l12.5 22.5l57 136h99l-45 -447h-99l-26 137q-1 9 -6.5 12t-36 5t-101.5 2h-100v-443h242q98 0 155 2t84 9t34.5 13t14.5 19 l78 185h117l-41 -375h-1002q-363 0 -542.5 148t-179.5 466zM279 666q0 -150 33 -250t108 -161.5t187.5 -86t279.5 -21.5l96 3v976l-205 7q-264 -1 -381.5 -112.5t-117.5 -354.5z" />
<glyph unicode="&#x153;" horiz-adv-x="1699" d="M90 449q0 134 41 236t111 161t155 88t183 29q239 0 342 -152q104 152 335 152q190 0 278.5 -90.5t88.5 -290.5l-37 -142l-596 9v-3q0 -174 59.5 -246.5t215.5 -72.5q168 0 354 109l8 -48q-48 -100 -154 -157.5t-227 -57.5q-136 0 -218.5 43.5t-131.5 133.5 q-66 -90 -166.5 -133.5t-218.5 -43.5q-422 0 -422 476zM252 473q0 -112 15 -180t57 -107q61 -61 229 -61q151 0 217 76.5t66 265.5q0 109 -13.5 175.5t-52.5 105.5q-60 63 -233 63q-153 0 -219 -74.5t-66 -263.5zM995 553h473q-4 68 -12 110.5t-23.5 74t-44 47t-66.5 22 t-99 6.5q-126 0 -171 -51.5t-57 -208.5z" />
<glyph unicode="&#x178;" horiz-adv-x="1210" d="M-25 1169v111h471v-147h-122l-5 -9l285 -493h31l270 487l-4 8l-147 43v111h465v-147h-146l-8 -9l-379 -626v-326l4 -8l207 -53v-111h-567v147h188l2 9v344l-385 616l-10 10zM244 1540q0 69 28 96t103 27q73 0 99 -27t26 -96q0 -71 -26.5 -101t-98.5 -30 q-74 0 -102.5 30.5t-28.5 100.5zM707 1540q0 69 28 96t103 27t101 -27t26 -96q0 -71 -26.5 -101t-100.5 -30t-102.5 30.5t-28.5 100.5z" />
<glyph unicode="&#x2c6;" horiz-adv-x="819" d="M70 1057l178 389h287l178 -389h-115l-197 299h-18l-199 -299h-114z" />
<glyph unicode="&#x2dc;" horiz-adv-x="819" d="M53 1073q22 151 60.5 217t128.5 66q51 0 104 -23t89.5 -51t77 -51t69.5 -23q27 0 45 26t47 116h92q-9 -60 -17.5 -100t-23 -78t-33.5 -59.5t-47.5 -34.5t-66.5 -13q-51 0 -104 23t-89.5 50.5t-77 50.5t-69.5 23q-28 0 -46 -25t-49 -114h-90z" />
<glyph unicode="&#x2000;" horiz-adv-x="896" />
<glyph unicode="&#x2001;" horiz-adv-x="1792" />
<glyph unicode="&#x2002;" horiz-adv-x="896" />
<glyph unicode="&#x2003;" horiz-adv-x="1792" />
<glyph unicode="&#x2004;" horiz-adv-x="597" />
<glyph unicode="&#x2005;" horiz-adv-x="448" />
<glyph unicode="&#x2006;" horiz-adv-x="298" />
<glyph unicode="&#x2007;" horiz-adv-x="298" />
<glyph unicode="&#x2008;" horiz-adv-x="224" />
<glyph unicode="&#x2009;" horiz-adv-x="358" />
<glyph unicode="&#x200a;" horiz-adv-x="99" />
<glyph unicode="&#x2010;" horiz-adv-x="647" d="M74 428v137h504v-137h-504z" />
<glyph unicode="&#x2011;" horiz-adv-x="647" d="M74 428v137h504v-137h-504z" />
<glyph unicode="&#x2012;" horiz-adv-x="647" d="M74 428v137h504v-137h-504z" />
<glyph unicode="&#x2013;" horiz-adv-x="962" d="M82 428v137h799v-137h-799z" />
<glyph unicode="&#x2014;" horiz-adv-x="1925" d="M82 428v137h1761v-137h-1761z" />
<glyph unicode="&#x2018;" horiz-adv-x="489" d="M72 946q0 111 74 203t247 217l33 -33q-94 -116 -138 -187.5t-44 -125.5q0 -51 40.5 -82.5t127.5 -52.5q0 -144 -140 -144q-86 0 -143 51t-57 154z" />
<glyph unicode="&#x2019;" horiz-adv-x="489" d="M63 754q96 119 139.5 188t43.5 123q0 52 -40.5 84t-127.5 51q0 73 34 108t107 35q85 0 142 -50.5t57 -151.5q0 -111 -74.5 -204t-247.5 -216z" />
<glyph unicode="&#x201a;" horiz-adv-x="489" d="M63 -350q96 119 139.5 188t43.5 123q0 52 -40.5 84t-127.5 51q0 73 34 108.5t107 35.5q85 0 142 -51t57 -152q0 -111 -74.5 -204t-247.5 -216z" />
<glyph unicode="&#x201c;" horiz-adv-x="956" d="M72 946q0 111 74 203t247 217l33 -33q-94 -116 -138 -187.5t-44 -125.5q0 -51 40.5 -82.5t127.5 -52.5q0 -144 -140 -144q-86 0 -143 51t-57 154zM537 946q0 76 37 144t103 130t183 146l33 -33q-94 -116 -138 -187.5t-44 -125.5q0 -52 40 -83t128 -52q0 -144 -140 -144 q-87 0 -144.5 51.5t-57.5 153.5z" />
<glyph unicode="&#x201d;" horiz-adv-x="956" d="M63 756q96 119 139.5 188t43.5 123q0 52 -40.5 84t-127.5 51q0 73 34 108.5t107 35.5q85 0 142 -51.5t57 -153.5q0 -111 -74 -202.5t-248 -215.5zM530 756q96 119 139.5 188t43.5 123q0 52 -40.5 84t-127.5 51q0 73 33.5 108.5t105.5 35.5q86 0 143.5 -51.5t57.5 -153.5 q0 -111 -74 -202.5t-248 -215.5z" />
<glyph unicode="&#x201e;" horiz-adv-x="956" d="M63 -350q96 119 139.5 188t43.5 123q0 52 -40.5 84t-127.5 51q0 73 34 108.5t107 35.5q85 0 142 -51.5t57 -153.5q0 -111 -74 -202.5t-248 -215.5zM530 -350q96 119 139.5 188t43.5 123q0 52 -40.5 84t-127.5 51q0 73 33.5 108.5t105.5 35.5q86 0 143.5 -51.5 t57.5 -153.5q0 -111 -74 -202.5t-248 -215.5z" />
<glyph unicode="&#x2022;" horiz-adv-x="931" d="M72 475q0 44 42.5 146t73.5 133t133.5 72.5t145.5 41.5q44 0 145.5 -41.5t132.5 -72.5t73 -133t42 -146q0 -45 -41.5 -146.5t-73.5 -133.5q-31 -31 -133.5 -73t-146.5 -42q-43 0 -145.5 42.5t-131.5 72.5q-31 33 -73.5 134.5t-42.5 145.5z" />
<glyph unicode="&#x2026;" horiz-adv-x="1466" d="M109 106q0 76 30 107t111 31q79 0 106 -30.5t27 -107.5q0 -78 -27 -109.5t-106 -31.5q-81 0 -111 32t-30 109zM598 106q0 76 29 107t110 31q79 0 106 -30.5t27 -107.5q0 -78 -27 -109.5t-106 -31.5q-81 0 -110 31.5t-29 109.5zM1087 106q0 76 29.5 107t110.5 31 q79 0 106 -30.5t27 -107.5q0 -78 -27 -109.5t-106 -31.5q-81 0 -110.5 32t-29.5 109z" />
<glyph unicode="&#x202f;" horiz-adv-x="358" />
<glyph unicode="&#x2039;" horiz-adv-x="708" d="M96 393v166l486 301l12 -112l-373 -256v-31l373 -256l-12 -115z" />
<glyph unicode="&#x203a;" horiz-adv-x="708" d="M115 205l372 256v31l-372 256l12 112l483 -301v-166l-483 -303z" />
<glyph unicode="&#x205f;" horiz-adv-x="448" />
<glyph unicode="&#x20ac;" horiz-adv-x="1083" d="M27 428l8 104h137q-2 23 -2 68q0 78 2 115h-137l-8 104h151q32 257 161 365t384 108q97 0 161 -11t98 -34.5t47 -53t13 -73.5q0 -37 -18 -52t-63 -15q-71 0 -112.5 18t-103.5 76q-8 4 -75 4q-140 0 -219 -77t-103 -255h510l-8 -104h-524q-2 -23 -2 -72q0 -41 4 -111h522 l8 -104h-508q13 -93 40 -153t73 -91.5t100 -43t135 -11.5q157 0 340 107l9 -48q-108 -217 -375 -217q-225 0 -347 109t-151 348h-147z" />
<glyph unicode="&#x2122;" horiz-adv-x="2060" d="M74 1016l26 266h719v-266h-94l-29 125q-5 25 -38 31t-103 6h-45v-527l2 -6l150 -43v-86h-400v117h125l6 6v539h-49q-124 0 -137 -37l-37 -125h-96zM920 1196v86h352l168 -604h24l195 604h323v-117h-112l-4 -6l8 -508l4 -6l131 -43v-86h-362v117h106l4 6v520h-26 l-220 -616h-135l-198 614h-27l-8 -506l2 -6l131 -43v-86h-342v117h108l2 6l11 508l-2 6z" />
<glyph unicode="&#xe000;" horiz-adv-x="931" d="M0 0v932h932v-932h-932z" />
</font>
</defs>
</svg>
